<svg width="425" height="60" viewBox="0 0 425 60" fill="none" xmlns="http://www.w3.org/2000/svg">
<path d="M21.4613 60C16.6595 48.3402 14.9683 36.2657 14.9683 23.8149C14.9683 18.4471 15.309 13.0667 16.2056 7.77344H20.7877C19.678 12.8103 19.3344 17.9725 19.3344 23.1165C19.3344 33.9253 20.6763 45.4143 23.8038 55.8289C26.9314 45.4143 28.2733 33.9253 28.2733 23.1165C28.2733 17.9725 27.9297 12.8103 26.8214 7.77344H31.4006C32.2961 13.0667 32.6412 18.4471 32.6412 23.8149C32.6412 36.2657 30.9487 48.3402 26.1469 60H21.4613Z" fill="#F08013"/>
<path d="M40.174 20.6271C40.3228 20.491 40.5086 20.402 40.7079 20.3715C40.9073 20.341 41.1112 20.3703 41.2938 20.4558C41.4765 20.5413 41.6297 20.679 41.734 20.8516C41.8383 21.0242 41.889 21.2239 41.8797 21.4254C41.8704 21.6268 41.8016 21.821 41.6818 21.9833C41.5621 22.1456 41.3969 22.2687 41.2072 22.337C41.0174 22.4053 40.8117 22.4158 40.616 22.3671C40.4203 22.3184 40.2435 22.2127 40.1079 22.0634C39.9268 21.8639 39.8322 21.6008 39.8446 21.3317C39.857 21.0625 39.9754 20.8092 40.174 20.6271V20.6271Z" fill="#F08013"/>
<path d="M40.1741 23.7841C40.3229 23.6481 40.5087 23.5593 40.708 23.529C40.9073 23.4986 41.1111 23.528 41.2936 23.6136C41.4762 23.6991 41.6292 23.8369 41.7335 24.0094C41.8377 24.182 41.8883 24.3816 41.8791 24.5829C41.8698 24.7843 41.801 24.9784 41.6814 25.1406C41.5618 25.3029 41.3967 25.426 41.2071 25.4944C41.0175 25.5628 40.8118 25.5734 40.6162 25.5249C40.4205 25.4764 40.2436 25.3709 40.108 25.2218C39.9272 25.0219 39.8327 24.7586 39.8451 24.4893C39.8575 24.2201 39.9757 23.9666 40.1741 23.7841V23.7841Z" fill="#F08013"/>
<path d="M42.3272 26.2472C42.4761 26.1121 42.6617 26.0241 42.8605 25.9944C43.0593 25.9647 43.2625 25.9946 43.4444 26.0803C43.6263 26.166 43.7786 26.3037 43.8823 26.476C43.986 26.6482 44.0363 26.8473 44.0268 27.0482C44.0174 27.249 43.9487 27.4425 43.8293 27.6043C43.71 27.7661 43.5453 27.8889 43.3563 27.9572C43.1672 28.0254 42.9621 28.0362 42.7669 27.988C42.5717 27.9398 42.3952 27.8348 42.2596 27.6863C42.1694 27.5875 42.0996 27.4718 42.0541 27.3459C42.0087 27.2201 41.9885 27.0864 41.9948 26.9527C42.001 26.8191 42.0336 26.6879 42.0907 26.5668C42.1477 26.4458 42.2281 26.3372 42.3272 26.2472V26.2472Z" fill="#F08013"/>
<path d="M39.5333 34.4847C39.682 34.3485 39.8678 34.2596 40.0671 34.2291C40.2664 34.1986 40.4703 34.228 40.6529 34.3135C40.8355 34.3989 40.9886 34.5367 41.0929 34.7093C41.1971 34.8818 41.2479 35.0815 41.2386 35.2829C41.2293 35.4843 41.1605 35.6784 41.0408 35.8407C40.9211 36.0029 40.7559 36.126 40.5662 36.1943C40.3765 36.2627 40.1708 36.2732 39.9752 36.2245C39.7795 36.1758 39.6027 36.0702 39.4671 35.921C39.2867 35.7211 39.1924 35.4582 39.2048 35.1892C39.2172 34.9203 39.3352 34.6671 39.5333 34.4847V34.4847Z" fill="#F08013"/>
<path d="M39.4261 37.6825C39.5816 37.5548 39.7715 37.4761 39.9718 37.4563C40.172 37.4366 40.3737 37.4766 40.5512 37.5714C40.7287 37.6663 40.8741 37.8116 40.969 37.9891C41.0639 38.1665 41.104 38.3681 41.0844 38.5684C41.0647 38.7687 40.9861 38.9586 40.8584 39.1142C40.7308 39.2698 40.5599 39.3841 40.3673 39.4425C40.1748 39.501 39.9692 39.501 39.7766 39.4427C39.584 39.3843 39.413 39.2701 39.2853 39.1146C39.2003 39.0114 39.1364 38.8925 39.0974 38.7646C39.0585 38.6367 39.0451 38.5024 39.0582 38.3693C39.0713 38.2363 39.1105 38.1071 39.1736 37.9892C39.2368 37.8714 39.3225 37.7672 39.4261 37.6825V37.6825Z" fill="#F08013"/>
<path d="M41.4836 40.2439C41.6409 40.1185 41.8319 40.0427 42.0324 40.0259C42.2329 40.0091 42.4339 40.0521 42.6099 40.1496C42.7859 40.247 42.9291 40.3944 43.0213 40.5732C43.1135 40.752 43.1507 40.9541 43.128 41.154C43.1054 41.3539 43.0239 41.5426 42.894 41.6963C42.7641 41.8499 42.5916 41.9616 42.3982 42.0171C42.2049 42.0727 41.9994 42.0697 41.8078 42.0085C41.6161 41.9472 41.4469 41.8306 41.3216 41.6732C41.2383 41.5687 41.1764 41.4489 41.1394 41.3205C41.1024 41.1921 41.0912 41.0577 41.1062 40.9249C41.1212 40.7922 41.1623 40.6637 41.2271 40.5468C41.2918 40.43 41.379 40.327 41.4836 40.2439V40.2439Z" fill="#F08013"/>
<path d="M41.6892 32.5175C41.838 32.3821 42.0235 32.2938 42.2224 32.2639C42.4213 32.234 42.6246 32.2637 42.8066 32.3493C42.9886 32.4349 43.1411 32.5725 43.2448 32.7448C43.3486 32.9171 43.3989 33.1163 43.3895 33.3172C43.38 33.5181 43.3112 33.7117 43.1917 33.8735C43.0723 34.0353 42.9075 34.158 42.7182 34.2262C42.529 34.2943 42.3238 34.3048 42.1286 34.2563C41.9334 34.2078 41.757 34.1025 41.6216 33.9538C41.4406 33.7541 41.346 33.4909 41.3587 33.2217C41.3713 32.9524 41.4902 32.6992 41.6892 32.5175V32.5175Z" fill="#F08013"/>
<path d="M37.4559 48.214C37.6197 48.0969 37.8146 48.031 38.0158 48.0248C38.2171 48.0185 38.4157 48.0721 38.5864 48.1788C38.7572 48.2855 38.8925 48.4404 38.9751 48.624C39.0578 48.8076 39.0841 49.0116 39.0508 49.2102C39.0174 49.4087 38.9259 49.5929 38.7878 49.7394C38.6497 49.8859 38.4712 49.9882 38.2749 50.0332C38.0787 50.0782 37.8735 50.064 37.6853 49.9923C37.4972 49.9207 37.3345 49.7948 37.218 49.6306C37.1402 49.5221 37.0847 49.3993 37.0546 49.2692C37.0244 49.1392 37.0203 49.0045 37.0424 48.8728C37.0646 48.7412 37.1125 48.6152 37.1834 48.5021C37.2544 48.3891 37.347 48.2911 37.4559 48.214Z" fill="#F08013"/>
<path d="M37.2184 51.7484C37.3855 51.6364 37.582 51.5765 37.7831 51.5763C37.9842 51.576 38.1809 51.6354 38.3483 51.747C38.5157 51.8585 38.6462 52.0172 38.7234 52.2029C38.8006 52.3886 38.8209 52.5931 38.7819 52.7904C38.7429 52.9877 38.6463 53.169 38.5042 53.3114C38.3622 53.4537 38.1811 53.5508 37.9839 53.5903C37.7866 53.6297 37.5822 53.6098 37.3963 53.533C37.2104 53.4563 37.0514 53.3261 36.9395 53.159C36.8652 53.0481 36.8134 52.9236 36.7872 52.7926C36.761 52.6617 36.7609 52.5269 36.7868 52.3959C36.8127 52.2649 36.8641 52.1403 36.9382 52.0292C37.0122 51.9181 37.1074 51.8227 37.2184 51.7484Z" fill="#F08013"/>
<path d="M39.8558 46.496C40.0198 46.3792 40.2148 46.3137 40.416 46.3077C40.6173 46.3017 40.8158 46.3556 40.9864 46.4625C41.157 46.5693 41.2921 46.7244 41.3746 46.9081C41.4571 47.0918 41.4832 47.2958 41.4497 47.4943C41.4162 47.6928 41.3245 47.877 41.1863 48.0234C41.0481 48.1698 40.8696 48.2719 40.6734 48.3169C40.4771 48.3618 40.2719 48.3475 40.0838 48.2758C39.8957 48.2041 39.733 48.0782 39.6165 47.9141C39.5387 47.8054 39.4832 47.6824 39.4532 47.5521C39.4232 47.4219 39.4192 47.2871 39.4414 47.1553C39.4636 47.0235 39.5117 46.8974 39.5828 46.7843C39.654 46.6712 39.7467 46.5732 39.8558 46.496V46.496Z" fill="#F08013"/>
<path d="M44.7702 15.8563C44.8577 15.675 44.9971 15.5237 45.1707 15.4216C45.3443 15.3195 45.5442 15.2711 45.7453 15.2827C45.9463 15.2942 46.1394 15.3652 46.3002 15.4865C46.4609 15.6078 46.582 15.7741 46.6482 15.9643C46.7144 16.1545 46.7228 16.36 46.6721 16.555C46.6215 16.7499 46.5142 16.9254 46.3638 17.0593C46.2133 17.1932 46.0266 17.2795 45.8271 17.3072C45.6277 17.335 45.4245 17.303 45.2432 17.2152C45.1227 17.1573 45.0149 17.0761 44.9259 16.9764C44.8368 16.8766 44.7684 16.7603 44.7244 16.634C44.6805 16.5078 44.6619 16.3741 44.6697 16.2406C44.6776 16.1071 44.7117 15.9765 44.7702 15.8563Z" fill="#F08013"/>
<path d="M45.6065 12.6924C45.6161 12.4913 45.6852 12.2976 45.8049 12.1358C45.9247 11.974 46.0898 11.8514 46.2793 11.7834C46.4687 11.7155 46.6741 11.7053 46.8694 11.7542C47.0647 11.803 47.2411 11.9087 47.3762 12.0579C47.5114 12.207 47.5993 12.3929 47.6288 12.5921C47.6582 12.7912 47.6279 12.9946 47.5417 13.1765C47.4555 13.3584 47.3173 13.5107 47.1445 13.614C46.9718 13.7173 46.7722 13.767 46.5712 13.7568C46.4379 13.7505 46.3072 13.7178 46.1865 13.6609C46.0658 13.6039 45.9576 13.5237 45.868 13.4248C45.7783 13.3259 45.7091 13.2103 45.6643 13.0846C45.6194 12.9589 45.5998 12.8256 45.6065 12.6924Z" fill="#F08013"/>
<path d="M45.4827 9.07348C45.4449 8.87568 45.4666 8.6711 45.5452 8.48566C45.6237 8.30022 45.7555 8.14226 45.9239 8.03178C46.0923 7.9213 46.2896 7.86326 46.491 7.86503C46.6924 7.8668 46.8887 7.92828 47.0551 8.0417C47.2215 8.15512 47.3506 8.31536 47.4258 8.50215C47.5011 8.68894 47.5193 8.89386 47.478 9.09097C47.4367 9.28809 47.3379 9.46852 47.194 9.60943C47.0501 9.75034 46.8677 9.84538 46.6698 9.88252C46.5387 9.90742 46.404 9.90623 46.2734 9.87904C46.1428 9.85184 46.0188 9.79918 45.9085 9.72404C45.7983 9.6489 45.7039 9.55277 45.6309 9.44114C45.5578 9.32952 45.5074 9.20458 45.4827 9.07348Z" fill="#F08013"/>
<path d="M44.36 5.83049C44.2581 5.65686 44.21 5.45688 44.2217 5.25587C44.2335 5.05486 44.3046 4.86186 44.4261 4.70129C44.5475 4.54071 44.7139 4.41978 44.9042 4.3538C45.0944 4.28782 45.2999 4.27975 45.4947 4.33062C45.6896 4.38149 45.8649 4.48901 45.9986 4.63958C46.1323 4.79014 46.2183 4.97698 46.2458 5.17645C46.2732 5.37591 46.2409 5.57904 46.1529 5.76014C46.0649 5.94123 45.9251 6.09214 45.7513 6.19377C45.5185 6.32967 45.2414 6.36775 44.9806 6.29965C44.7198 6.23155 44.4966 6.06284 44.36 5.83049V5.83049Z" fill="#F08013"/>
<path d="M42.7157 18.2727C42.8644 18.1373 43.0499 18.0489 43.2488 18.0189C43.4477 17.9888 43.651 18.0184 43.833 18.1039C44.0151 18.1893 44.1678 18.3269 44.2717 18.4991C44.3756 18.6713 44.4261 18.8705 44.4169 19.0714C44.4076 19.2723 44.339 19.466 44.2197 19.6279C44.1004 19.7898 43.9358 19.9128 43.7467 19.9812C43.5575 20.0496 43.3523 20.0604 43.1571 20.0122C42.9618 19.964 42.7852 19.859 42.6496 19.7104C42.5595 19.6117 42.4898 19.4962 42.4444 19.3705C42.3989 19.2448 42.3787 19.1114 42.3849 18.9779C42.391 18.8444 42.4234 18.7134 42.4802 18.5924C42.5369 18.4714 42.617 18.3628 42.7157 18.2727V18.2727Z" fill="#F08013"/>
<path d="M7.4657 20.6272C7.31704 20.4914 7.1314 20.4026 6.9323 20.3723C6.7332 20.342 6.52957 20.3714 6.3472 20.4569C6.16483 20.5423 6.0119 20.68 5.90779 20.8524C5.80367 21.0248 5.75304 21.2242 5.76231 21.4254C5.77157 21.6265 5.84032 21.8205 5.95984 21.9826C6.07936 22.1447 6.24429 22.2677 6.43375 22.336C6.6232 22.4043 6.82867 22.4149 7.02414 22.3664C7.21962 22.3179 7.3963 22.2125 7.53185 22.0635C7.71283 21.864 7.80746 21.6009 7.79506 21.3317C7.78267 21.0626 7.66425 20.8093 7.4657 20.6272Z" fill="#F08013"/>
<path d="M7.46572 23.7841C7.31699 23.6484 7.13137 23.5599 6.93233 23.5297C6.73329 23.4995 6.52977 23.529 6.34752 23.6145C6.16526 23.7 6.01245 23.8377 5.90842 24.01C5.80438 24.1824 5.75379 24.3817 5.76304 24.5828C5.77229 24.7839 5.84097 24.9777 5.9604 25.1398C6.07982 25.3019 6.24462 25.4249 6.43396 25.4933C6.6233 25.5617 6.82867 25.5724 7.0241 25.5241C7.21952 25.4757 7.39623 25.3705 7.53187 25.2218C7.71262 25.0218 7.80708 24.7586 7.79469 24.4893C7.7823 24.22 7.66407 23.9666 7.46572 23.7841V23.7841Z" fill="#F08013"/>
<path d="M5.31111 26.2471C5.16213 26.1124 4.97655 26.0247 4.77781 25.9953C4.57907 25.9659 4.37607 25.9961 4.19444 26.0819C4.01281 26.1678 3.86069 26.3056 3.75729 26.4778C3.6539 26.6501 3.60385 26.8491 3.61347 27.0498C3.62309 27.2504 3.69195 27.4438 3.81136 27.6053C3.93077 27.7669 4.09536 27.8895 4.28438 27.9576C4.47339 28.0257 4.67834 28.0363 4.87336 27.988C5.06837 27.9397 5.24471 27.8347 5.38012 27.6863C5.47051 27.5875 5.54047 27.4718 5.58595 27.3458C5.63144 27.2198 5.65155 27.0861 5.64514 26.9524C5.63872 26.8186 5.60591 26.6874 5.54858 26.5664C5.49125 26.4453 5.41055 26.3368 5.31111 26.2471V26.2471Z" fill="#F08013"/>
<path d="M8.10594 34.4848C7.95729 34.3489 7.77169 34.2603 7.57263 34.23C7.37356 34.1997 7.16999 34.2291 6.98766 34.3146C6.80534 34.4 6.65245 34.5376 6.54837 34.71C6.44428 34.8823 6.39367 35.0817 6.40293 35.2829C6.4122 35.484 6.48092 35.6779 6.60041 35.8399C6.7199 36.002 6.88478 36.125 7.07419 36.1933C7.2636 36.2616 7.46902 36.2722 7.66445 36.2238C7.85989 36.1753 8.03655 36.07 8.17209 35.921C8.35335 35.7216 8.44816 35.4584 8.43576 35.1892C8.42336 34.92 8.30476 34.6667 8.10594 34.4848V34.4848Z" fill="#F08013"/>
<path d="M8.21351 37.6825C8.05797 37.5548 7.86805 37.4761 7.66778 37.4563C7.46751 37.4366 7.26588 37.4767 7.08838 37.5715C6.91089 37.6663 6.76551 37.8117 6.67062 37.9892C6.57573 38.1666 6.5356 38.3682 6.5553 38.5685C6.57501 38.7688 6.65365 38.9587 6.7813 39.1143C6.90895 39.2699 7.07987 39.3841 7.27244 39.4426C7.46501 39.501 7.67059 39.501 7.86317 39.4426C8.05576 39.3842 8.2267 39.27 8.35438 39.1145C8.43944 39.0113 8.50328 38.8924 8.54224 38.7645C8.58121 38.6366 8.59453 38.5023 8.58144 38.3692C8.56835 38.2362 8.52911 38.107 8.46597 37.9891C8.40283 37.8713 8.31704 37.7671 8.21351 37.6825V37.6825Z" fill="#F08013"/>
<path d="M6.15615 40.2439C5.99878 40.1185 5.80778 40.0427 5.6073 40.0259C5.40682 40.0091 5.20586 40.0521 5.02985 40.1496C4.85383 40.247 4.71065 40.3944 4.61843 40.5732C4.5262 40.752 4.48907 40.9541 4.51172 41.154C4.53437 41.3539 4.6158 41.5426 4.74569 41.6963C4.87559 41.8499 5.04812 41.9616 5.24148 42.0171C5.43483 42.0727 5.64032 42.0697 5.83196 42.0085C6.0236 41.9472 6.19279 41.8306 6.31812 41.6732C6.40157 41.5688 6.46359 41.449 6.50062 41.3206C6.53766 41.1921 6.54897 41.0577 6.53392 40.9249C6.51888 40.7921 6.47776 40.6636 6.41293 40.5467C6.3481 40.4299 6.26084 40.3269 6.15615 40.2439V40.2439Z" fill="#F08013"/>
<path d="M5.95198 32.5174C5.80335 32.3817 5.61781 32.2931 5.41883 32.2629C5.21985 32.2327 5.01637 32.2621 4.83414 32.3476C4.6519 32.433 4.49911 32.5706 4.39508 32.7429C4.29106 32.9152 4.24047 33.1144 4.24973 33.3155C4.25899 33.5165 4.32768 33.7103 4.4471 33.8723C4.56653 34.0343 4.73132 34.1573 4.92063 34.2256C5.10995 34.2939 5.31527 34.3046 5.51063 34.2562C5.70599 34.2078 5.88261 34.1025 6.01813 33.9537C6.19895 33.7541 6.29347 33.491 6.28108 33.2219C6.26869 32.9529 6.15038 32.6996 5.95198 32.5174V32.5174Z" fill="#F08013"/>
<path d="M10.182 48.2139C10.0181 48.097 9.82319 48.0314 9.62195 48.0254C9.42071 48.0193 9.2222 48.0731 9.05156 48.18C8.88091 48.2868 8.74581 48.4419 8.66335 48.6255C8.58088 48.8092 8.55477 49.0132 8.58832 49.2117C8.62186 49.4103 8.71356 49.5944 8.85179 49.7407C8.99003 49.8871 9.16858 49.9892 9.36486 50.034C9.56114 50.0789 9.7663 50.0645 9.95438 49.9926C10.1425 49.9208 10.305 49.7948 10.4214 49.6305C10.499 49.5219 10.5544 49.399 10.5844 49.2689C10.6144 49.1388 10.6184 49.0041 10.5961 48.8725C10.5739 48.7408 10.5258 48.6149 10.4548 48.5019C10.3837 48.3889 10.291 48.291 10.182 48.2139V48.2139Z" fill="#F08013"/>
<path d="M10.4216 51.7484C10.2544 51.6366 10.0578 51.577 9.85671 51.5769C9.6556 51.5769 9.45899 51.6364 9.29175 51.7481C9.1245 51.8598 8.99413 52.0186 8.91711 52.2044C8.8401 52.3901 8.8199 52.5946 8.85908 52.7919C8.89826 52.9891 8.99505 53.1703 9.13721 53.3126C9.27937 53.4548 9.46052 53.5517 9.65776 53.591C9.85499 53.6303 10.0594 53.6103 10.2453 53.5334C10.4311 53.4565 10.59 53.3262 10.7017 53.159C10.776 53.048 10.8277 52.9234 10.8538 52.7925C10.8799 52.6615 10.8799 52.5267 10.8539 52.3957C10.8279 52.2647 10.7763 52.1401 10.7021 52.029C10.628 51.918 10.5326 51.8226 10.4216 51.7484V51.7484Z" fill="#F08013"/>
<path d="M7.78412 46.496C7.61988 46.3796 7.42481 46.3145 7.22358 46.309C7.02235 46.3034 6.824 46.3577 6.65362 46.465C6.48324 46.5722 6.34849 46.7275 6.26641 46.9113C6.18433 47.0951 6.15861 47.2992 6.19251 47.4976C6.22641 47.696 6.3184 47.88 6.45684 48.0261C6.59528 48.1723 6.77396 48.2741 6.97027 48.3186C7.16658 48.3632 7.3717 48.3486 7.55969 48.2766C7.74767 48.2045 7.91008 48.0784 8.02636 47.9141C8.10365 47.8051 8.1587 47.6819 8.18836 47.5516C8.21802 47.4214 8.22171 47.2865 8.19921 47.1548C8.17671 47.0231 8.12847 46.8971 8.05725 46.7841C7.98602 46.671 7.89321 46.5732 7.78412 46.496Z" fill="#F08013"/>
<path d="M2.86968 15.8563C2.78204 15.6754 2.64274 15.5245 2.46938 15.4227C2.29602 15.321 2.09638 15.2729 1.8957 15.2846C1.69501 15.2962 1.50229 15.3671 1.34189 15.4883C1.18148 15.6094 1.0606 15.7754 0.994506 15.9653C0.928416 16.1551 0.920089 16.3603 0.970576 16.5549C1.02106 16.7495 1.1281 16.9247 1.27816 17.0585C1.42821 17.1922 1.61456 17.2785 1.81363 17.3064C2.01271 17.3343 2.21559 17.3025 2.39663 17.2152C2.51701 17.1571 2.62476 17.0759 2.71371 16.9761C2.80266 16.8764 2.87106 16.7601 2.915 16.6338C2.95894 16.5076 2.97755 16.374 2.96978 16.2405C2.962 16.1071 2.92799 15.9765 2.86968 15.8563V15.8563Z" fill="#F08013"/>
<path d="M2.0332 12.6924C2.02363 12.4914 1.95468 12.2978 1.83508 12.1361C1.71548 11.9743 1.55059 11.8517 1.36128 11.7836C1.17196 11.7155 0.966719 11.7052 0.7715 11.7537C0.576281 11.8023 0.399854 11.9077 0.264529 12.0566C0.129204 12.2054 0.0410571 12.3911 0.0112372 12.59C-0.0185826 12.789 0.011263 12.9923 0.0969992 13.1743C0.182735 13.3563 0.320511 13.5088 0.492906 13.6125C0.665301 13.7162 0.864573 13.7664 1.06552 13.7568C1.19899 13.7506 1.32992 13.7181 1.45081 13.6612C1.57171 13.6043 1.6802 13.5241 1.77007 13.4253C1.85995 13.3264 1.92945 13.2108 1.97461 13.085C2.01976 12.9593 2.03967 12.8258 2.0332 12.6924V12.6924Z" fill="#F08013"/>
<path d="M2.15709 9.07347C2.19483 8.87572 2.17306 8.67122 2.09453 8.48585C2.01601 8.30049 1.88426 8.14258 1.71596 8.03211C1.54766 7.92164 1.35038 7.86358 1.14907 7.86527C0.947765 7.86696 0.751484 7.92834 0.585067 8.04162C0.418651 8.1549 0.289579 8.31501 0.214185 8.50168C0.138791 8.68834 0.120466 8.89317 0.161525 9.09026C0.202584 9.28734 0.301182 9.46781 0.444844 9.60884C0.588507 9.74987 0.770776 9.84511 0.968585 9.88251C1.09975 9.90744 1.23454 9.90628 1.36525 9.87912C1.49597 9.85195 1.62005 9.7993 1.73042 9.72417C1.84079 9.64904 1.93527 9.55291 2.00848 9.44126C2.08169 9.32961 2.13219 9.20463 2.15709 9.07347V9.07347Z" fill="#F08013"/>
<path d="M3.2794 5.83049C3.38134 5.65686 3.42948 5.45688 3.41773 5.25587C3.40598 5.05486 3.33486 4.86186 3.21338 4.70129C3.0919 4.54071 2.92552 4.41978 2.73529 4.3538C2.54505 4.28782 2.33952 4.27975 2.1447 4.33062C1.94988 4.38149 1.77453 4.48901 1.64084 4.63958C1.50715 4.79014 1.42113 4.97698 1.39367 5.17645C1.3662 5.37591 1.39853 5.57904 1.48655 5.76014C1.57457 5.94123 1.71433 6.09214 1.88815 6.19377C2.0033 6.26146 2.13068 6.30577 2.26299 6.32414C2.39529 6.34252 2.52992 6.3346 2.65916 6.30086C2.78841 6.26711 2.90972 6.20819 3.01615 6.12748C3.12258 6.04676 3.21204 5.94584 3.2794 5.83049V5.83049Z" fill="#F08013"/>
<path d="M4.92403 18.2727C4.77535 18.1373 4.58985 18.0489 4.39097 18.0189C4.19209 17.9888 3.98877 18.0184 3.8067 18.1039C3.62464 18.1893 3.472 18.3269 3.36808 18.4991C3.26416 18.6713 3.21363 18.8705 3.22288 19.0714C3.23212 19.2723 3.30073 19.466 3.42002 19.6279C3.53931 19.7898 3.70393 19.9128 3.89308 19.9812C4.08223 20.0496 4.28741 20.0604 4.48268 20.0122C4.67796 19.964 4.85457 19.859 4.99018 19.7104C5.1716 19.5108 5.2665 19.2474 5.2541 18.9779C5.2417 18.7084 5.12301 18.4549 4.92403 18.2727Z" fill="#F08013"/>
<path d="M17.1706 48.0817L11.3645 43.9889C11.2541 43.9006 11.1621 43.7915 11.0939 43.6677C11.0257 43.544 10.9826 43.4079 10.9671 43.2675C10.9515 43.127 10.9638 42.9848 11.0033 42.8491C11.0427 42.7134 11.1085 42.5868 11.197 42.4766L15.0806 37.9326C15.2715 37.7232 15.4192 37.4782 15.5154 37.2117C15.6115 36.9451 15.6541 36.6622 15.6408 36.3792C15.6275 36.0961 15.5584 35.8185 15.4377 35.5622C15.3169 35.3058 15.1468 35.0758 14.937 34.8853L10.0748 30.4548C9.8644 30.2626 9.73895 29.9947 9.72601 29.7101C9.71307 29.4254 9.8137 29.1473 10.0058 28.9368L14.44 24.0773C14.8253 23.6544 15.0269 23.0959 15.0005 22.5245C14.9741 21.953 14.7218 21.4155 14.2991 21.03L7.86117 15.1468C6.98105 14.3457 7.00358 13.0431 7.7203 12.101L14.423 3.1523C15.0806 2.28773 15.0398 1.28229 14.3047 0.611888C13.9385 0.278751 13.2161 -0.111973 11.8924 0.0303236C5.57268 0.710399 1.32867 6.25285 2.02984 12.6613C2.37884 15.8816 3.52674 17.0363 4.15891 17.6108L9.0043 22.0393C9.10911 22.1341 9.19414 22.2487 9.2545 22.3765C9.31487 22.5044 9.34938 22.6428 9.35606 22.784C9.36273 22.9252 9.34144 23.0663 9.29341 23.1993C9.24538 23.3322 9.17155 23.4544 9.07617 23.5587L4.64624 28.4168C4.45515 28.6259 4.30717 28.8707 4.21075 29.1371C4.11434 29.4035 4.07137 29.6863 4.08433 29.9693C4.09728 30.2523 4.16588 30.53 4.28623 30.7865C4.40657 31.0429 4.57629 31.2732 4.78568 31.464L9.6452 35.8968C9.7497 35.9917 9.83446 36.1063 9.89464 36.2339C9.95482 36.3616 9.98923 36.4999 9.9959 36.6409C10.0026 36.7819 9.98139 36.9228 9.93354 37.0556C9.88569 37.1884 9.81213 37.3105 9.71706 37.4148L5.8146 42.3038C5.6374 42.525 5.50552 42.7789 5.42646 43.051C5.34741 43.3231 5.32275 43.6082 5.35387 43.8898C5.385 44.1715 5.47131 44.4443 5.60788 44.6926C5.74444 44.9409 5.92859 45.1598 6.1498 45.3369L11.9697 49.4853C12.0807 49.5724 12.1735 49.6804 12.2427 49.8034C12.312 49.9263 12.3563 50.0617 12.3731 50.2017C12.39 50.3418 12.3791 50.4838 12.341 50.6197C12.303 50.7555 12.2385 50.8825 12.1513 50.9935L9.64488 54.7404C9.3117 55.2057 9.17699 55.7842 9.27038 56.3488C9.36376 56.9134 9.67759 57.4177 10.1428 57.7509C10.6081 58.0841 11.1866 58.2188 11.7512 58.1254C12.3158 58.032 12.8201 57.7182 13.1533 57.2529L17.5369 51.1093C17.7122 50.8867 17.8418 50.6316 17.9183 50.3588C17.9948 50.0859 18.0167 49.8007 17.9826 49.5194C17.9486 49.2381 17.8594 48.9663 17.72 48.7195C17.5807 48.4728 17.3939 48.2561 17.1706 48.0817ZM8.99494 2.82265C9.11058 2.69674 9.26093 2.60791 9.42701 2.56738C9.59308 2.52684 9.76745 2.53641 9.92809 2.59488C10.0887 2.65335 10.2285 2.7581 10.3296 2.89591C10.4308 3.03371 10.4889 3.1984 10.4965 3.36918C10.5042 3.53996 10.461 3.70918 10.3726 3.85548C10.2842 4.00178 10.1544 4.11861 9.99961 4.19121C9.84484 4.26381 9.67203 4.28893 9.50299 4.26341C9.33395 4.23789 9.17627 4.16286 9.04983 4.0478C8.96575 3.971 8.89762 3.87838 8.84935 3.77524C8.80107 3.67209 8.7736 3.56044 8.7685 3.44668C8.7634 3.33291 8.78078 3.21925 8.81963 3.11221C8.85849 3.00516 8.91806 2.90682 8.99494 2.8228V2.82265Z" fill="#F08013"/>
<path d="M35.7467 0.0302654C34.4231 -0.112508 33.7003 0.278058 33.3345 0.61183C32.5994 1.28207 32.5557 2.28751 33.2163 3.15223L39.919 12.1009C40.6357 13.0429 40.6583 14.3455 39.7781 15.1468L33.3402 21.03C32.9176 21.4154 32.6653 21.9529 32.6388 22.5243C32.6124 23.0957 32.8139 23.6542 33.1992 24.077L37.6351 28.9361C37.8267 29.1469 37.9268 29.4251 37.9136 29.7096C37.9004 29.9942 37.7749 30.2619 37.5647 30.4541L32.6995 34.885C32.2774 35.2708 32.0255 35.8082 31.9991 36.3795C31.9727 36.9507 32.1739 37.5091 32.5586 37.9322L36.4422 42.4762C36.5308 42.5864 36.5967 42.713 36.6363 42.8487C36.6758 42.9844 36.6882 43.1266 36.6726 43.2671C36.657 43.4077 36.6139 43.5437 36.5456 43.6675C36.4773 43.7913 36.3852 43.9004 36.2747 43.9885L30.4686 48.0813C30.2453 48.2558 30.0588 48.4726 29.9195 48.7193C29.7803 48.966 29.6911 49.2378 29.6571 49.5191C29.623 49.8004 29.6449 50.0856 29.7213 50.3584C29.7977 50.6312 29.9272 50.8862 30.1024 51.1089L34.4865 57.2527C34.8196 57.7181 35.324 58.032 35.8886 58.1255C36.4532 58.2189 37.0318 58.0843 37.4971 57.7512C37.9624 57.418 38.2764 56.9137 38.3698 56.3491C38.4633 55.7845 38.3287 55.2059 37.9955 54.7406L35.4877 50.9936C35.4007 50.8824 35.3365 50.7553 35.2987 50.6193C35.2609 50.4834 35.2503 50.3413 35.2674 50.2012C35.2845 50.0612 35.3291 49.9259 35.3985 49.803C35.468 49.6802 35.561 49.5723 35.6722 49.4854L41.4892 45.3371C41.9357 44.9791 42.2218 44.4586 42.2846 43.8898C42.3474 43.3211 42.1818 42.7506 41.8242 42.3039L37.9251 37.4149C37.8294 37.311 37.7553 37.1892 37.7069 37.0565C37.6585 36.9239 37.6368 36.7829 37.6431 36.6418C37.6493 36.5007 37.6835 36.3623 37.7435 36.2345C37.8035 36.1066 37.8882 35.9919 37.9927 35.8969L42.8536 31.4641C43.2763 31.0788 43.5288 30.5414 43.5556 29.97C43.5824 29.3987 43.3812 28.84 42.9964 28.4169L38.563 23.5583C38.3716 23.3471 38.2716 23.0688 38.2848 22.7841C38.298 22.4994 38.4234 22.2315 38.6334 22.0389L43.4831 17.6104C44.1126 17.0358 45.2598 15.8812 45.6122 12.6609C46.3106 6.25295 42.067 0.710499 35.7467 0.0302654ZM38.5898 4.04774C38.4633 4.16312 38.3054 4.23842 38.1361 4.26412C37.9669 4.28983 37.7938 4.26478 37.6387 4.19215C37.4837 4.11952 37.3536 4.00257 37.265 3.85606C37.1764 3.70956 37.1332 3.54007 37.1408 3.36902C37.1485 3.19797 37.2067 3.03303 37.308 2.89503C37.4094 2.75703 37.5494 2.65218 37.7103 2.5937C37.8713 2.53523 38.0459 2.52576 38.2122 2.5665C38.3785 2.60724 38.529 2.69635 38.6447 2.82259C38.7217 2.90657 38.7813 3.00491 38.8202 3.11198C38.8591 3.21905 38.8765 3.33275 38.8714 3.44655C38.8663 3.56035 38.8388 3.67203 38.7905 3.77519C38.7422 3.87836 38.674 3.97097 38.5898 4.04774V4.04774Z" fill="#F08013"/>
<path d="M59.0324 39.6211H68.8781V35.7939H59.0324V30.295H69.1598V26.5212H54.8573V49.1149H69.4864V45.2889H59.0323L59.0324 39.6211ZM75.916 28.0843H71.728V49.1149H86.4529V45.5297H75.916V28.0843ZM105.619 37.0301C106.175 36.6916 106.661 36.2488 107.048 35.7261C107.668 34.8854 107.94 33.8393 107.94 32.6451C107.94 30.7315 107.294 29.1613 105.987 28.0841C104.684 26.9943 102.907 26.5 100.664 26.5H93.7712V49.1149H101.846C104.168 49.1149 106.073 48.5473 107.516 47.3969C108.947 46.245 109.714 44.6425 109.686 42.7036C109.712 41.2779 109.21 39.8929 108.275 38.8157C107.545 38.0172 106.635 37.405 105.62 37.0303M97.9003 30.3234H100.342C101.624 30.3234 102.466 30.5544 102.925 30.9275C103.157 31.1269 103.338 31.3803 103.45 31.6655C103.573 32.0443 103.633 32.441 103.626 32.8394C103.626 33.8864 103.315 34.5348 102.685 35.0127C102.082 35.4647 101.011 35.7534 99.4761 35.7534H97.9003V30.3234ZM104.514 44.5769C103.972 44.991 102.973 45.274 101.519 45.2457H97.8999V39.5943H101.01C102.644 39.5943 103.777 39.8732 104.398 40.3309C105.014 40.7984 105.339 41.4221 105.339 42.4883C105.339 43.5304 105.061 44.1527 104.514 44.5766M142.581 36.795L142.134 36.5514C140.936 35.8557 140.061 35.2234 139.497 34.6842C139.267 34.4709 139.07 34.224 138.914 33.9521C138.808 33.8057 138.748 33.6313 138.741 33.4508C138.736 33.2066 138.795 32.9655 138.913 32.7513C139.03 32.537 139.201 32.3571 139.409 32.2293C139.892 31.8814 140.518 31.6885 141.367 31.6885C142.095 31.6855 142.817 31.8252 143.492 32.0997C144.349 32.4716 145.154 32.9544 145.885 33.5358L146.73 34.1639V29.6633L146.476 29.5112C145.689 29.0741 144.857 28.7252 143.993 28.4707C143.178 28.2445 142.336 28.1262 141.49 28.1187C139.611 28.1187 137.995 28.6454 136.74 29.6892C136.138 30.183 135.655 30.8062 135.328 31.5126C135 32.2189 134.836 32.99 134.848 33.7685C134.823 34.881 135.175 35.9692 135.846 36.8566C136.335 37.4144 136.892 37.9099 137.502 38.3319C138.261 38.9065 139.233 39.5317 140.413 40.2541C141.152 40.678 141.749 41.075 142.214 41.4031C142.552 41.6313 142.867 41.8922 143.154 42.1818C143.455 42.5504 143.623 43.0099 143.63 43.4858C143.596 44.1153 143.408 44.5067 142.932 44.8756C142.475 45.2235 141.779 45.4361 140.826 45.4361C139.954 45.4441 139.094 45.2371 138.322 44.8333C137.549 44.4377 136.697 43.742 135.784 42.7958L134.871 41.8071V47.0295L135.097 47.1773C135.911 47.8314 136.838 48.3319 137.831 48.6544C138.857 48.994 139.932 49.1582 141.012 49.1401C142.908 49.1401 144.52 48.6134 145.759 47.5756C146.363 47.0898 146.848 46.4732 147.178 45.7723C147.508 45.0714 147.675 44.3046 147.665 43.5299C147.665 42.1612 147.342 40.9614 146.65 39.9871C145.952 38.9877 144.606 37.9651 142.58 36.7949M168.877 45.6366C170.446 43.7666 171.226 41.5559 171.226 39.0592C171.231 37.589 170.95 36.1317 170.399 34.7686C169.813 33.4323 168.971 32.2235 167.921 31.2102C166.882 30.1864 165.649 29.3811 164.293 28.8418C162.91 28.2942 161.436 28.0147 159.948 28.018C158.475 28.014 157.016 28.2937 155.649 28.8418C154.286 29.3854 153.042 30.1899 151.988 31.2102C150.953 32.2091 150.13 33.4052 149.566 34.7278C148.984 36.0275 148.684 37.4354 148.686 38.8592C148.686 41.4431 149.471 43.7427 151.02 45.6872C152.538 47.6136 154.57 48.895 157.054 49.5243C158.905 50.8326 160.641 51.8338 162.291 52.5208C163.994 53.2376 165.538 53.5869 166.944 53.5869H167.356C167.471 53.5883 167.586 53.577 167.698 53.5531L167.866 53.5277L170.959 50.8085L170.725 50.1551L170.555 49.7439L170.145 49.8326C169.791 49.9077 169.433 49.9632 169.072 49.9987C168.791 50.0442 168.506 50.063 168.22 50.055C167.366 50.0433 166.516 49.9315 165.687 49.7218C165.137 49.567 164.51 49.3473 163.844 49.0883C165.88 48.332 167.595 47.1986 168.877 45.6355M166.576 41.2943C166.22 42.1571 165.694 42.9399 165.03 43.5966L165.008 43.6148C164.346 44.2982 163.557 44.8446 162.684 45.2229C161.815 45.5757 160.886 45.7584 159.948 45.7608C159.007 45.7603 158.075 45.5707 157.208 45.2032C156.338 44.8251 155.547 44.2862 154.876 43.6148V43.5966C154.21 42.9445 153.688 42.1602 153.344 41.2943C152.975 40.4278 152.79 39.4944 152.799 38.5527C152.79 37.5999 152.975 36.6552 153.344 35.7766C153.689 34.9169 154.206 34.1372 154.865 33.4855C155.547 32.8142 156.351 32.2781 157.233 31.9057C158.097 31.5477 159.023 31.3635 159.959 31.3635C160.894 31.3635 161.82 31.5477 162.684 31.9057C163.555 32.2591 164.342 32.7911 164.995 33.4673C165.676 34.1425 166.214 34.9486 166.576 35.8372C166.944 36.6951 167.128 37.6203 167.117 38.5535C167.124 39.4945 166.94 40.4271 166.576 41.2951M187.321 41.0095C187.301 42.3543 186.873 43.3554 185.91 44.1526C184.981 44.9397 183.716 45.3819 182.066 45.3819C181.195 45.3935 180.331 45.2302 179.524 44.9017C178.783 44.5876 178.128 44.1026 177.61 43.4865C177.325 43.148 177.126 42.7451 177.032 42.3126C176.904 41.8592 176.829 40.986 176.829 39.7258V28.0998H172.94V39.8389C172.94 41.4427 173.05 42.6397 173.292 43.486C173.521 44.3151 173.926 45.0851 174.48 45.7432C175.357 46.835 176.483 47.6996 177.764 48.2638C179.123 48.8424 180.588 49.1323 182.065 49.1149C184.708 49.1149 186.933 48.3771 188.627 46.8999C190.348 45.4367 191.218 43.4443 191.184 41.0955V28.0998H187.32L187.321 41.0095ZM197.859 45.4874V40.3309H207.77V36.7298H197.859V31.7764H208.077V28.1912H193.672V49.0698H208.408V45.4875L197.859 45.4874ZM130.176 31.0514C129.121 30.0517 127.882 29.2652 126.529 28.7353C125.131 28.2044 123.649 27.9325 122.154 27.9328C120.684 27.934 119.226 28.2061 117.855 28.7353C116.489 29.2531 115.241 30.0408 114.187 31.0514C113.134 32.0185 112.29 33.1898 111.706 34.4938C111.141 35.773 110.846 37.1551 110.84 38.5535C110.827 39.9985 111.119 41.4299 111.696 42.7549C112.272 44.0799 113.121 45.2688 114.187 46.2447C115.242 47.242 116.481 48.0241 117.835 48.547C120.627 49.6086 123.709 49.6156 126.505 48.5668C127.873 48.0328 129.127 47.2449 130.202 46.2447C131.235 45.2718 132.069 44.106 132.655 42.8131C133.218 41.5234 133.506 40.1305 133.5 38.7232C133.513 37.2933 133.231 35.8761 132.674 34.5594C132.09 33.2313 131.239 32.0373 130.175 31.0513M128.828 41.309C128.465 42.1634 127.936 42.9376 127.272 43.5871C126.609 44.2367 125.823 44.7488 124.961 45.0941C123.162 45.7888 121.169 45.7888 119.37 45.0941C118.51 44.7397 117.725 44.225 117.057 43.5775C116.387 42.9386 115.86 42.1656 115.509 41.309C115.142 40.4677 114.957 39.5583 114.966 38.6406C114.961 37.7192 115.143 36.8064 115.503 35.958C115.862 35.1097 116.391 34.3437 117.057 33.707C117.753 33.0586 118.557 32.5372 119.433 32.1665C121.192 31.4661 123.153 31.4661 124.912 32.1665C125.787 32.5141 126.581 33.0386 127.244 33.707C127.928 34.3593 128.474 35.1428 128.848 36.0107C129.196 36.8436 129.373 37.7383 129.367 38.6411C129.376 39.5585 129.193 40.4676 128.828 41.3095M60.8152 21.5421C62.6824 21.5421 64.1651 20.9493 65.257 19.7812C66.3358 18.6073 66.9018 17.0198 66.9018 15.0401V6.41309H65.6577V15.1083C65.6577 16.6924 65.224 17.9541 64.365 18.8919C63.4694 19.8226 62.2951 20.3038 60.815 20.3038C59.3378 20.3038 58.1634 19.8222 57.2947 18.8919C56.4034 17.9541 55.9655 16.6924 55.9655 15.1083V6.41309H54.7784V15.0407C54.7784 17.0395 55.3135 18.6286 56.4034 19.7819C57.4891 20.9493 58.969 21.5427 60.815 21.5427M72.6167 8.65684L82.1766 20.1908H83.1327V7.15456H82.1047V18.5129L72.6576 7.15456H71.5706V20.191H72.6176L72.6167 8.65684ZM87.8724 20.3866H88.9807V7.32905H87.8724V20.3866ZM98.3674 20.6035L103.845 7.33033H102.734L98.2768 18.2856L93.8725 7.32905H92.7145L98.209 20.6022L98.3674 20.6035ZM114.098 19.4939H107.989V14.1888H113.746V13.3523H107.989V8.17475H113.947V7.32905H106.947V20.3849H114.098V19.4939ZM119.727 14.1078H120.778C121.336 14.0953 121.893 14.1468 122.44 14.2613C122.786 14.3372 123.105 14.5095 123.358 14.7585C123.604 15.0354 123.834 15.3264 124.046 15.6302C124.332 16.023 124.697 16.5427 125.088 17.1791L127.154 20.3869H128.325L124.76 14.8929C124.618 14.6658 124.453 14.4539 124.268 14.2605C124.064 14.0849 123.845 13.9266 123.614 13.7875C124.433 13.5227 125.051 13.1256 125.461 12.585C125.874 12.0598 126.069 11.3881 126.069 10.6052C126.069 9.54632 125.717 8.74092 124.987 8.17475C124.238 7.61286 123.201 7.32985 121.834 7.32985H118.699V20.3856H119.727V14.1078ZM119.727 8.22329H121.897C122.872 8.22329 123.614 8.41476 124.156 8.8499C124.678 9.26379 124.936 9.85106 124.936 10.6059C124.957 11.0952 124.838 11.5803 124.592 12.0042C124.34 12.4043 123.966 12.7131 123.525 12.8858C123.219 13.0134 122.899 13.104 122.572 13.1555C122.17 13.1921 121.499 13.2146 120.533 13.2146H119.727L119.727 8.22329ZM138.234 16.9959C138.231 16.5743 138.16 16.1561 138.025 15.7568C137.875 15.3764 137.661 15.0252 137.39 14.719C136.98 14.2613 136.169 13.7881 135.001 13.3071C134.871 13.2424 134.788 13.2142 134.723 13.1705C133.653 12.7171 132.962 12.3298 132.654 11.9595C132.329 11.6159 132.176 11.1346 132.176 10.5697C132.166 10.2404 132.227 9.91272 132.354 9.6087C132.48 9.30468 132.671 9.03127 132.912 8.80675C133.436 8.33846 134.119 8.08941 134.822 8.11113C135.312 8.11336 135.799 8.20102 136.259 8.37019C136.808 8.57729 137.326 8.85519 137.803 9.19684V8.02706C137.343 7.75758 136.855 7.5385 136.348 7.37363C135.867 7.23794 135.371 7.16432 134.871 7.15456C133.76 7.15456 132.869 7.48118 132.176 8.13461C131.836 8.44805 131.566 8.83084 131.387 9.25715C131.207 9.68346 131.121 10.1434 131.134 10.6059C131.134 11.4339 131.351 12.1112 131.81 12.6335C132.263 13.1545 133.108 13.6769 134.348 14.1895C135.545 14.6971 136.304 15.13 136.636 15.499C136.978 15.9065 137.153 16.4281 137.126 16.9593C137.126 17.7618 136.895 18.387 136.391 18.8645C135.915 19.3221 135.236 19.5644 134.394 19.5644C133.853 19.5509 133.319 19.4308 132.824 19.2109C132.199 18.9393 131.615 18.5815 131.09 18.1481V19.4056C131.599 19.7697 132.156 20.063 132.744 20.2773C133.282 20.4627 133.846 20.5579 134.414 20.5589C135.531 20.5589 136.432 20.2416 137.153 19.5633C137.506 19.2371 137.785 18.8391 137.972 18.3961C138.158 17.9531 138.248 17.4753 138.234 16.9948M143.493 7.32905H142.393V20.3849H143.493V7.32905ZM155.294 20.0784C155.978 19.8989 156.622 19.5902 157.19 19.1687C157.994 18.5639 158.641 17.7751 159.077 16.8685C159.518 15.9223 159.746 14.8911 159.746 13.8474C159.746 12.8036 159.518 11.7724 159.077 10.8262C158.641 9.91982 157.993 9.13111 157.19 8.52597C156.625 8.10921 155.988 7.7999 155.311 7.61349C154.488 7.41741 153.645 7.32237 152.799 7.33048H148.325V20.3863H152.799C153.641 20.3998 154.481 20.2965 155.294 20.0793M149.431 19.457V8.26057H152.538C153.273 8.25808 154.006 8.33251 154.725 8.48266C155.292 8.60635 155.832 8.83252 156.318 9.15004C157.046 9.65436 157.632 10.3372 158.02 11.133C158.428 11.9862 158.633 12.9221 158.619 13.8676C158.628 14.8149 158.423 15.752 158.02 16.6093C157.626 17.4006 157.041 18.0811 156.318 18.5891C155.832 18.9074 155.292 19.135 154.725 19.2608C154.005 19.4002 153.272 19.4658 152.538 19.4565L149.431 19.457ZM167.073 7.82717L161.705 20.3863H162.747L164.577 16.0422H169.981L171.814 20.3863H172.858L167.489 7.82717H167.073ZM164.917 15.1914L167.292 9.54616L169.638 15.1914H164.917ZM183.588 20.079C184.272 19.9068 184.914 19.5973 185.475 19.1694C186.283 18.5685 186.931 17.7787 187.363 16.8691C187.811 15.9249 188.043 14.893 188.043 13.848C188.043 12.803 187.811 11.771 187.363 10.8268C186.931 9.91754 186.283 9.12783 185.475 8.5266C184.918 8.10357 184.283 7.79359 183.607 7.61412C182.781 7.41869 181.936 7.32366 181.087 7.33111H176.635V20.3869H181.087C181.931 20.4008 182.773 20.2975 183.588 20.08M177.716 19.4576V8.26057H180.833C181.567 8.25808 182.299 8.33251 183.018 8.48266C183.584 8.60634 184.123 8.83252 184.608 9.15004C185.337 9.64975 185.92 10.334 186.299 11.133C186.718 11.9825 186.928 12.9203 186.91 13.8676C186.923 14.8167 186.714 15.7556 186.299 16.6093C185.915 17.4038 185.332 18.0857 184.608 18.5891C184.123 18.9074 183.584 19.135 183.018 19.2608C182.298 19.4002 181.566 19.4658 180.833 19.4565L177.716 19.4576Z" fill="#404827"/>
<path opacity="0.5" d="M229.544 10L229.544 50" stroke="#404827" stroke-linecap="round"/>
<path d="M258.28 27H252.82C252.5 27 252.38 26.92 252.38 26.58V13.42C252.38 13.1 252.48 13 252.82 13H257.78C260.06 13 262.78 13.94 262.78 16.88C262.78 18.48 261.66 19.34 260.8 19.78V19.8C261.7 20.18 263.28 21.1 263.28 23.12C263.28 26 260.92 27 258.28 27ZM254.8 24.98H258.16C260.06 24.98 260.86 24.26 260.86 22.9C260.86 21.78 259.84 20.86 258.24 20.86H254.8V24.98ZM254.8 18.92H257.9C259.46 18.92 260.36 18.12 260.36 17.12C260.36 15.68 259.42 15.02 257.68 15.02H254.8V18.92ZM266.138 26.58V17.24C266.138 16.92 266.238 16.82 266.558 16.82H267.998C268.318 16.82 268.418 16.92 268.418 17.24V26.58C268.418 26.9 268.318 27 267.998 27H266.558C266.238 27 266.138 26.9 266.138 26.58ZM265.858 13.64C265.858 12.86 266.478 12.22 267.258 12.22C268.018 12.22 268.658 12.86 268.658 13.64C268.658 14.42 268.018 15.02 267.258 15.02C266.478 15.02 265.858 14.42 265.858 13.64ZM274.366 12.66V18.46C274.646 17.94 275.766 16.6 277.706 16.6C280.426 16.6 282.326 19 282.326 21.92C282.326 24.78 280.426 27.22 277.706 27.22C275.766 27.22 274.666 26.12 273.966 25.28L273.686 26.58C273.546 26.88 273.446 27 273.206 27H272.506C272.186 27 272.086 26.9 272.086 26.58V12.66C272.086 12.34 272.186 12.24 272.506 12.24H273.946C274.266 12.24 274.366 12.34 274.366 12.66ZM277.206 25.22C278.866 25.22 280.046 23.78 280.046 21.92C280.046 20.12 278.866 18.64 277.206 18.64C275.526 18.64 274.346 20.16 274.346 21.92C274.346 23.68 275.526 25.22 277.206 25.22ZM284.96 26.58V12.66C284.96 12.34 285.06 12.24 285.38 12.24H286.82C287.16 12.24 287.24 12.34 287.24 12.66V26.58C287.24 26.9 287.14 27 286.82 27H285.38C285.06 27 284.96 26.9 284.96 26.58ZM291.08 26.58V17.24C291.08 16.92 291.18 16.82 291.5 16.82H292.94C293.26 16.82 293.36 16.92 293.36 17.24V26.58C293.36 26.9 293.26 27 292.94 27H291.5C291.18 27 291.08 26.9 291.08 26.58ZM290.8 13.64C290.8 12.86 291.42 12.22 292.2 12.22C292.96 12.22 293.6 12.86 293.6 13.64C293.6 14.42 292.96 15.02 292.2 15.02C291.42 15.02 290.8 14.42 290.8 13.64ZM303.207 26.72C302.407 27.22 301.527 27.22 301.267 27.22C298.627 27.22 297.407 25.56 297.407 22.8V18.64H296.667C296.347 18.64 296.247 18.54 296.247 18.22V17.24C296.247 16.92 296.347 16.82 296.667 16.82H297.407V14.86C297.407 14.54 297.487 14.44 297.827 14.44H299.247C299.567 14.44 299.667 14.54 299.667 14.86V16.82H302.747C303.067 16.82 303.167 16.92 303.167 17.26V18.22C303.167 18.54 303.067 18.64 302.747 18.64H299.667V22.66C299.667 24.46 300.287 25.18 301.507 25.18C301.947 25.18 302.287 25.14 302.707 24.94C303.087 24.74 303.167 24.76 303.247 25.18L303.427 26.18C303.487 26.48 303.467 26.58 303.207 26.72ZM305.056 21.92C305.056 19 307.436 16.6 310.356 16.6C313.276 16.6 315.636 19 315.636 21.92C315.636 24.84 313.276 27.22 310.356 27.22C307.436 27.22 305.056 24.84 305.056 21.92ZM310.356 25.22C312.016 25.22 313.376 23.78 313.376 21.92C313.376 20.06 312.016 18.64 310.356 18.64C308.676 18.64 307.316 20.06 307.316 21.92C307.316 23.78 308.676 25.22 310.356 25.22ZM326.14 24.54L326.72 25.26C326.92 25.5 326.96 25.62 326.78 25.82C325.86 26.72 324.2 27.22 322.74 27.22C319.72 27.22 317.36 24.84 317.36 21.92C317.36 19 319.72 16.6 322.64 16.6C325.9 16.6 327.6 19.22 327.6 22.22C327.6 22.54 327.54 22.66 327.2 22.66H319.72C319.94 24.1 321.24 25.26 322.8 25.26C323.5 25.26 324.5 25.1 325.54 24.5C325.84 24.36 325.94 24.28 326.14 24.54ZM319.76 21.16H325.28C325.14 19.86 324.26 18.48 322.58 18.48C320.88 18.48 319.9 19.86 319.76 21.16ZM334.476 25.18C335.256 25.18 336.136 24.94 336.776 24.32C337.016 24.1 337.156 24.16 337.376 24.4L338.116 25.2C338.316 25.44 338.356 25.54 338.176 25.72C337.156 26.72 335.856 27.22 334.476 27.22C331.556 27.22 329.196 24.84 329.196 21.92C329.196 19 331.556 16.6 334.476 16.6C335.856 16.6 337.156 17.1 338.176 18.1C338.356 18.28 338.316 18.38 338.116 18.62L337.376 19.42C337.156 19.66 337.016 19.72 336.776 19.5C336.136 18.88 335.256 18.64 334.476 18.64C332.816 18.64 331.456 20.06 331.456 21.92C331.456 23.78 332.816 25.18 334.476 25.18ZM341.64 18.86C341.32 18.9 341.24 18.78 341.16 18.46L340.92 17.5C340.84 17.18 340.88 17.06 341.18 16.98C341.42 16.92 343.2 16.6 344.68 16.6C348.5 16.6 349.18 18.28 349.18 21.44V26.58C349.18 26.9 349.1 27 348.76 27H347.92C347.68 27 347.58 26.9 347.46 26.58L347.32 25.64C346.76 26.26 345.66 27.22 343.58 27.22C341.78 27.22 340.08 26.12 340.08 23.88C340.08 21.7 341.8 20.66 343.96 20.66C344.8 20.66 346.02 20.86 346.9 21.18C346.9 19.3 346.42 18.56 344.58 18.56C343.44 18.56 342.38 18.72 341.64 18.86ZM344.5 22.28C342.98 22.28 342.34 22.96 342.34 23.88C342.34 24.66 342.92 25.48 344.3 25.48C345.32 25.48 346.3 24.82 346.9 24.06V22.8C346.04 22.5 345.38 22.28 344.5 22.28ZM256.12 34.86H253.36C253.04 34.86 252.94 34.76 252.94 34.44V33.42C252.94 33.1 253.04 33 253.36 33H258.12C258.46 33 258.56 33.1 258.56 33.42V41.56C258.56 45.78 256.1 47.24 252.08 47.26C251.64 47.26 251.6 47.16 251.56 46.84L251.4 45.56C251.38 45.24 251.54 45.14 251.9 45.14C255.04 45.14 256.12 44.1 256.12 41.56V34.86ZM268.559 46.58L268.279 45.32C267.679 46.14 266.799 47.22 265.099 47.22C262.899 47.22 261.219 46.04 261.219 42.6V37.24C261.219 36.92 261.319 36.82 261.639 36.82H263.079C263.399 36.82 263.499 36.92 263.499 37.24V42.12C263.499 44.22 264.279 45.18 265.679 45.18C267.159 45.18 267.919 43.94 267.919 42.04V37.24C267.919 36.92 268.019 36.82 268.339 36.82H269.779C270.099 36.82 270.199 36.92 270.199 37.24V42V46.58C270.199 46.9 270.099 47 269.779 47H269.059C268.799 47 268.719 46.88 268.559 46.58ZM274.57 38.86C274.25 38.9 274.17 38.78 274.09 38.46L273.85 37.5C273.77 37.18 273.81 37.06 274.11 36.98C274.35 36.92 276.13 36.6 277.61 36.6C281.43 36.6 282.11 38.28 282.11 41.44V46.58C282.11 46.9 282.03 47 281.69 47H280.85C280.61 47 280.51 46.9 280.39 46.58L280.25 45.64C279.69 46.26 278.59 47.22 276.51 47.22C274.71 47.22 273.01 46.12 273.01 43.88C273.01 41.7 274.73 40.66 276.89 40.66C277.73 40.66 278.95 40.86 279.83 41.18C279.83 39.3 279.35 38.56 277.51 38.56C276.37 38.56 275.31 38.72 274.57 38.86ZM277.43 42.28C275.91 42.28 275.27 42.96 275.27 43.88C275.27 44.66 275.85 45.48 277.23 45.48C278.25 45.48 279.23 44.82 279.83 44.06V42.8C278.97 42.5 278.31 42.28 277.43 42.28ZM286.794 37.24L287.074 38.5C287.674 37.7 288.554 36.6 290.254 36.6C292.454 36.6 294.134 37.78 294.134 41.22V46.58C294.134 46.9 294.034 47 293.714 47H292.274C291.954 47 291.854 46.9 291.854 46.58V41.72C291.854 39.6 291.074 38.64 289.674 38.64C288.194 38.64 287.434 39.88 287.434 41.78V46.58C287.434 46.9 287.334 47 287.014 47H285.574C285.254 47 285.154 46.9 285.154 46.58V41.82V37.24C285.154 36.92 285.254 36.82 285.574 36.82H286.294C286.554 36.82 286.634 36.94 286.794 37.24ZM312.524 37.2C312.524 39.5 311.224 40.72 309.484 41.22L313.064 46.46C313.284 46.84 313.044 47 312.704 47H311.224C310.884 47 310.684 46.86 310.484 46.58L307.004 41.46H304.664V46.58C304.664 46.92 304.564 47 304.244 47H302.664C302.344 47 302.244 46.92 302.244 46.58V33.42C302.244 33.1 302.344 33 302.664 33H307.544C309.824 33 312.524 33.96 312.524 37.2ZM304.664 39.44H307.444C309.324 39.44 310.184 38.64 310.184 37.2C310.184 35.68 309.164 35.02 307.444 35.02H304.664V39.44ZM314.626 41.92C314.626 39 317.006 36.6 319.926 36.6C322.846 36.6 325.206 39 325.206 41.92C325.206 44.84 322.846 47.22 319.926 47.22C317.006 47.22 314.626 44.84 314.626 41.92ZM319.926 45.22C321.586 45.22 322.946 43.78 322.946 41.92C322.946 40.06 321.586 38.64 319.926 38.64C318.246 38.64 316.886 40.06 316.886 41.92C316.886 43.78 318.246 45.22 319.926 45.22ZM328.632 38.86C328.312 38.9 328.232 38.78 328.152 38.46L327.912 37.5C327.832 37.18 327.872 37.06 328.172 36.98C328.412 36.92 330.192 36.6 331.672 36.6C335.492 36.6 336.172 38.28 336.172 41.44V46.58C336.172 46.9 336.092 47 335.752 47H334.912C334.672 47 334.572 46.9 334.452 46.58L334.312 45.64C333.752 46.26 332.652 47.22 330.572 47.22C328.772 47.22 327.072 46.12 327.072 43.88C327.072 41.7 328.792 40.66 330.952 40.66C331.792 40.66 333.012 40.86 333.892 41.18C333.892 39.3 333.412 38.56 331.572 38.56C330.432 38.56 329.372 38.72 328.632 38.86ZM331.492 42.28C329.972 42.28 329.332 42.96 329.332 43.88C329.332 44.66 329.912 45.48 331.292 45.48C332.312 45.48 333.292 44.82 333.892 44.06V42.8C333.032 42.5 332.372 42.28 331.492 42.28ZM349.495 46.9L342.735 33.42C342.635 33.22 342.755 33 342.995 33H344.855C345.135 33 345.235 33.1 345.415 33.42L349.875 42.68V42.7L354.335 33.42C354.495 33.1 354.615 33 354.895 33H356.735C357.035 33 357.095 33.26 357.015 33.42L350.255 46.9C350.095 47.16 350.055 47.3 349.895 47.3H349.835C349.695 47.3 349.655 47.16 349.495 46.9ZM358.451 38.86C358.131 38.9 358.051 38.78 357.971 38.46L357.731 37.5C357.651 37.18 357.691 37.06 357.991 36.98C358.231 36.92 360.011 36.6 361.491 36.6C365.311 36.6 365.991 38.28 365.991 41.44V46.58C365.991 46.9 365.911 47 365.571 47H364.731C364.491 47 364.391 46.9 364.271 46.58L364.131 45.64C363.571 46.26 362.471 47.22 360.391 47.22C358.591 47.22 356.891 46.12 356.891 43.88C356.891 41.7 358.611 40.66 360.771 40.66C361.611 40.66 362.831 40.86 363.711 41.18C363.711 39.3 363.231 38.56 361.391 38.56C360.251 38.56 359.191 38.72 358.451 38.86ZM361.311 42.28C359.791 42.28 359.151 42.96 359.151 43.88C359.151 44.66 359.731 45.48 361.111 45.48C362.131 45.48 363.111 44.82 363.711 44.06V42.8C362.851 42.5 362.191 42.28 361.311 42.28ZM363.831 33.92L362.271 35.24C362.091 35.4 361.871 35.5 361.611 35.5H360.351C360.071 35.5 360.011 35.36 360.331 35L362.811 32.32C363.011 32.06 363.231 32.16 363.411 32.44L363.971 33.34C364.091 33.58 364.091 33.7 363.831 33.92ZM372.381 45.44C373.881 45.44 374.581 44.86 374.581 44.08C374.581 43.42 373.701 43.1 372.181 42.9C370.101 42.62 368.281 41.98 368.281 39.84C368.281 37.88 369.901 36.6 372.321 36.6C373.361 36.6 374.721 36.86 376.181 37.72C376.501 37.92 376.421 38.06 376.301 38.34L375.861 39.08C375.721 39.36 375.601 39.48 375.301 39.28C374.441 38.74 373.681 38.38 372.461 38.38C371.021 38.38 370.441 38.9 370.441 39.72C370.441 40.5 371.301 40.7 372.841 40.92C374.921 41.18 376.741 41.84 376.741 43.96C376.741 45.9 375.101 47.22 372.521 47.22C371.461 47.22 369.841 46.92 368.381 45.94C368.101 45.74 368.141 45.62 368.281 45.34L368.721 44.58C368.861 44.3 368.961 44.16 369.281 44.4C370.021 44.92 371.121 45.44 372.381 45.44ZM386.355 50.66V45.36C386.075 45.9 384.955 47.22 383.015 47.22C380.275 47.22 378.395 44.82 378.395 41.9C378.395 39.06 380.275 36.6 383.015 36.6C384.955 36.6 386.035 37.7 386.735 38.54L387.015 37.24C387.175 36.94 387.255 36.82 387.515 36.82H388.215C388.535 36.82 388.635 36.92 388.635 37.24V50.66C388.635 50.98 388.535 51.08 388.215 51.08H386.775C386.435 51.08 386.355 50.98 386.355 50.66ZM383.515 38.6C381.855 38.6 380.655 40.04 380.655 41.9C380.655 43.7 381.855 45.18 383.515 45.18C385.175 45.18 386.355 43.66 386.355 41.9C386.355 40.14 385.175 38.6 383.515 38.6ZM398.93 46.58L398.65 45.32C398.05 46.14 397.17 47.22 395.47 47.22C393.27 47.22 391.59 46.04 391.59 42.6V37.24C391.59 36.92 391.69 36.82 392.01 36.82H393.45C393.77 36.82 393.87 36.92 393.87 37.24V42.12C393.87 44.22 394.65 45.18 396.05 45.18C397.53 45.18 398.29 43.94 398.29 42.04V37.24C398.29 36.92 398.39 36.82 398.71 36.82H400.15C400.47 36.82 400.57 36.92 400.57 37.24V42V46.58C400.57 46.9 400.47 47 400.15 47H399.43C399.17 47 399.09 46.88 398.93 46.58ZM411.941 44.54L412.521 45.26C412.721 45.5 412.761 45.62 412.581 45.82C411.661 46.72 410.001 47.22 408.541 47.22C405.521 47.22 403.161 44.84 403.161 41.92C403.161 39 405.521 36.6 408.441 36.6C411.701 36.6 413.401 39.22 413.401 42.22C413.401 42.54 413.341 42.66 413.001 42.66H405.521C405.741 44.1 407.041 45.26 408.601 45.26C409.301 45.26 410.301 45.1 411.341 44.5C411.641 44.36 411.741 44.28 411.941 44.54ZM405.561 41.16H411.081C410.941 39.86 410.061 38.48 408.381 38.48C406.681 38.48 405.701 39.86 405.561 41.16ZM422.917 47H414.837C414.697 47 414.657 46.96 414.657 46.82V46.66C414.657 46.52 414.697 46.44 414.797 46.28L419.937 38.82H415.537C415.217 38.82 415.117 38.72 415.117 38.4V37.24C415.117 36.92 415.217 36.82 415.537 36.82H423.237C423.357 36.82 423.397 36.86 423.397 37V37.18C423.397 37.3 423.337 37.4 423.257 37.54L418.197 45H422.917C423.237 45 423.337 45.1 423.337 45.42V46.58C423.337 46.9 423.237 47 422.917 47Z" fill="#404827"/>
</svg>
