<svg width="407" height="60" viewBox="0 0 407 60" fill="none" xmlns="http://www.w3.org/2000/svg">
<path d="M21.4613 60C16.6595 48.3402 14.9683 36.2658 14.9683 23.815C14.9683 18.4472 15.309 13.0667 16.2056 7.7735H20.7877C19.678 12.8104 19.3344 17.9726 19.3344 23.1165C19.3344 33.9254 20.6763 45.4143 23.8039 55.829C26.9314 45.4143 28.2733 33.9254 28.2733 23.1165C28.2733 17.9726 27.9297 12.8104 26.8214 7.7735H31.4007C32.2962 13.0667 32.6412 18.4472 32.6412 23.815C32.6412 36.2658 30.9487 48.3402 26.1469 60H21.4613Z" fill="#F08013"/>
<path d="M40.1741 20.6271C40.3228 20.491 40.5086 20.402 40.708 20.3715C40.9073 20.341 41.1112 20.3703 41.2939 20.4558C41.4765 20.5413 41.6297 20.679 41.734 20.8516C41.8383 21.0242 41.889 21.2239 41.8797 21.4254C41.8705 21.6268 41.8016 21.821 41.6819 21.9833C41.5622 22.1456 41.397 22.2687 41.2072 22.337C41.0175 22.4053 40.8117 22.4158 40.616 22.3671C40.4203 22.3184 40.2435 22.2127 40.1079 22.0634C39.9269 21.8639 39.8322 21.6008 39.8446 21.3317C39.857 21.0625 39.9755 20.8092 40.1741 20.6271Z" fill="#F08013"/>
<path d="M40.174 23.784C40.3228 23.648 40.5086 23.5592 40.7079 23.5289C40.9072 23.4985 41.111 23.528 41.2936 23.6135C41.4761 23.699 41.6292 23.8368 41.7334 24.0093C41.8376 24.1819 41.8883 24.3815 41.879 24.5829C41.8698 24.7842 41.801 24.9783 41.6813 25.1406C41.5617 25.3028 41.3966 25.426 41.207 25.4944C41.0174 25.5628 40.8117 25.5734 40.6161 25.5248C40.4204 25.4763 40.2436 25.3708 40.1079 25.2218C39.9271 25.0218 39.8326 24.7585 39.845 24.4893C39.8574 24.22 39.9757 23.9665 40.174 23.784Z" fill="#F08013"/>
<path d="M42.3272 26.2472C42.4761 26.1121 42.6617 26.0241 42.8605 25.9944C43.0594 25.9647 43.2625 25.9946 43.4444 26.0803C43.6263 26.166 43.7786 26.3037 43.8823 26.476C43.986 26.6482 44.0363 26.8473 44.0268 27.0482C44.0174 27.249 43.9487 27.4425 43.8293 27.6043C43.71 27.7661 43.5454 27.8889 43.3563 27.9572C43.1672 28.0254 42.9621 28.0362 42.7669 27.988C42.5717 27.9398 42.3952 27.8348 42.2596 27.6863C42.1694 27.5875 42.0996 27.4718 42.0541 27.3459C42.0087 27.2201 41.9885 27.0864 41.9948 26.9527C42.0011 26.8191 42.0337 26.6879 42.0907 26.5668C42.1478 26.4458 42.2281 26.3372 42.3272 26.2472Z" fill="#F08013"/>
<path d="M39.5333 34.4847C39.682 34.3486 39.8678 34.2596 40.0671 34.2292C40.2664 34.1987 40.4703 34.2281 40.6529 34.3135C40.8355 34.399 40.9887 34.5368 41.0929 34.7093C41.1972 34.8819 41.2479 35.0815 41.2386 35.2829C41.2293 35.4843 41.1605 35.6785 41.0408 35.8407C40.9211 36.003 40.756 36.1261 40.5663 36.1944C40.3766 36.2627 40.1709 36.2732 39.9752 36.2246C39.7796 36.1759 39.6027 36.0703 39.4672 35.921C39.2867 35.7212 39.1925 35.4582 39.2049 35.1893C39.2173 34.9203 39.3353 34.6671 39.5333 34.4847Z" fill="#F08013"/>
<path d="M39.4261 37.6825C39.5816 37.5548 39.7715 37.4761 39.9718 37.4563C40.1721 37.4366 40.3737 37.4766 40.5512 37.5714C40.7287 37.6663 40.8741 37.8116 40.969 37.9891C41.0639 38.1665 41.1041 38.3681 41.0844 38.5684C41.0647 38.7687 40.9861 38.9586 40.8585 39.1142C40.7308 39.2698 40.5599 39.3841 40.3674 39.4425C40.1748 39.501 39.9692 39.501 39.7766 39.4427C39.584 39.3843 39.4131 39.2701 39.2854 39.1146C39.2003 39.0114 39.1365 38.8925 39.0975 38.7646C39.0585 38.6367 39.0452 38.5024 39.0583 38.3693C39.0713 38.2363 39.1106 38.1071 39.1737 37.9892C39.2368 37.8714 39.3226 37.7672 39.4261 37.6825Z" fill="#F08013"/>
<path d="M41.4836 40.2439C41.641 40.1185 41.832 40.0427 42.0324 40.0259C42.2329 40.0091 42.4339 40.0521 42.6099 40.1496C42.7859 40.247 42.9291 40.3944 43.0213 40.5732C43.1135 40.752 43.1507 40.9541 43.128 41.154C43.1054 41.3539 43.0239 41.5426 42.894 41.6963C42.7642 41.8499 42.5916 41.9616 42.3983 42.0171C42.2049 42.0727 41.9994 42.0697 41.8078 42.0085C41.6161 41.9472 41.447 41.8306 41.3216 41.6732C41.2383 41.5687 41.1764 41.4489 41.1394 41.3205C41.1024 41.1921 41.0912 41.0577 41.1062 40.9249C41.1213 40.7922 41.1623 40.6637 41.2271 40.5468C41.2918 40.43 41.379 40.327 41.4836 40.2439Z" fill="#F08013"/>
<path d="M41.6892 32.5175C41.8379 32.3821 42.0235 32.2938 42.2224 32.2639C42.4212 32.234 42.6245 32.2637 42.8065 32.3493C42.9885 32.4349 43.1411 32.5725 43.2448 32.7448C43.3486 32.9171 43.3989 33.1163 43.3895 33.3172C43.38 33.5181 43.3112 33.7117 43.1917 33.8735C43.0722 34.0353 42.9075 34.158 42.7182 34.2262C42.529 34.2943 42.3238 34.3048 42.1286 34.2563C41.9334 34.2078 41.757 34.1025 41.6216 33.9538C41.4405 33.7541 41.346 33.4909 41.3587 33.2217C41.3713 32.9524 41.4902 32.6992 41.6892 32.5175Z" fill="#F08013"/>
<path d="M37.456 48.214C37.6198 48.0969 37.8146 48.031 38.0159 48.0248C38.2171 48.0185 38.4157 48.0721 38.5865 48.1788C38.7572 48.2855 38.8925 48.4404 38.9752 48.624C39.0578 48.8076 39.0842 49.0116 39.0508 49.2102C39.0174 49.4087 38.9259 49.5929 38.7878 49.7394C38.6497 49.8859 38.4712 49.9882 38.275 50.0332C38.0787 50.0782 37.8735 50.064 37.6854 49.9923C37.4972 49.9207 37.3346 49.7948 37.218 49.6306C37.1403 49.5221 37.0847 49.3993 37.0546 49.2692C37.0245 49.1392 37.0204 49.0045 37.0425 48.8728C37.0646 48.7412 37.1125 48.6152 37.1835 48.5021C37.2544 48.3891 37.347 48.2911 37.456 48.214Z" fill="#F08013"/>
<path d="M37.2183 51.7483C37.3854 51.6364 37.5819 51.5765 37.7831 51.5762C37.9842 51.576 38.1809 51.6354 38.3482 51.7469C38.5156 51.8585 38.6461 52.0171 38.7233 52.2028C38.8005 52.3886 38.8209 52.593 38.7819 52.7903C38.7429 52.9876 38.6462 53.1689 38.5042 53.3113C38.3621 53.4537 38.181 53.5507 37.9838 53.5902C37.7866 53.6297 37.5821 53.6097 37.3962 53.533C37.2103 53.4562 37.0514 53.326 36.9394 53.1589C36.8651 53.048 36.8134 52.9235 36.7872 52.7926C36.761 52.6617 36.7608 52.5268 36.7867 52.3959C36.8126 52.2649 36.8641 52.1403 36.9381 52.0292C37.0122 51.9181 37.1074 51.8226 37.2183 51.7483Z" fill="#F08013"/>
<path d="M39.8558 46.4961C40.0198 46.3793 40.2148 46.3137 40.416 46.3078C40.6173 46.3018 40.8158 46.3556 40.9864 46.4625C41.157 46.5694 41.2921 46.7245 41.3746 46.9082C41.4571 47.0918 41.4832 47.2958 41.4497 47.4944C41.4162 47.6929 41.3245 47.877 41.1863 48.0234C41.0481 48.1699 40.8696 48.272 40.6734 48.3169C40.4771 48.3619 40.2719 48.3476 40.0838 48.2759C39.8957 48.2042 39.733 48.0783 39.6165 47.9141C39.5387 47.8054 39.4832 47.6824 39.4532 47.5522C39.4232 47.422 39.4192 47.2871 39.4414 47.1553C39.4636 47.0236 39.5117 46.8975 39.5828 46.7844C39.654 46.6712 39.7467 46.5732 39.8558 46.4961Z" fill="#F08013"/>
<path d="M44.7702 15.8563C44.8578 15.675 44.9972 15.5237 45.1708 15.4216C45.3443 15.3195 45.5443 15.2711 45.7453 15.2827C45.9464 15.2942 46.1395 15.3652 46.3002 15.4865C46.461 15.6078 46.5821 15.7741 46.6483 15.9643C46.7145 16.1545 46.7228 16.36 46.6722 16.555C46.6215 16.7499 46.5142 16.9254 46.3638 17.0593C46.2134 17.1932 46.0267 17.2795 45.8272 17.3072C45.6277 17.335 45.4245 17.303 45.2433 17.2152C45.1228 17.1573 45.0149 17.0761 44.9259 16.9764C44.8369 16.8766 44.7684 16.7603 44.7245 16.634C44.6805 16.5078 44.6619 16.3741 44.6698 16.2406C44.6776 16.1071 44.7118 15.9765 44.7702 15.8563Z" fill="#F08013"/>
<path d="M45.6066 12.6923C45.6162 12.4912 45.6852 12.2975 45.805 12.1357C45.9247 11.9739 46.0898 11.8513 46.2793 11.7834C46.4688 11.7154 46.6742 11.7052 46.8694 11.7541C47.0647 11.803 47.2411 11.9087 47.3763 12.0578C47.5115 12.207 47.5993 12.3929 47.6288 12.592C47.6583 12.7911 47.628 12.9945 47.5418 13.1764C47.4556 13.3584 47.3173 13.5106 47.1446 13.6139C46.9718 13.7172 46.7723 13.7669 46.5712 13.7568C46.4379 13.7504 46.3072 13.7178 46.1865 13.6608C46.0658 13.6038 45.9576 13.5236 45.868 13.4247C45.7784 13.3258 45.7091 13.2102 45.6643 13.0846C45.6194 12.9589 45.5998 12.8256 45.6066 12.6923Z" fill="#F08013"/>
<path d="M45.4827 9.07354C45.4449 8.87574 45.4666 8.67116 45.5452 8.48572C45.6237 8.30028 45.7555 8.14232 45.9239 8.03184C46.0922 7.92136 46.2896 7.86332 46.491 7.86509C46.6924 7.86686 46.8887 7.92834 47.0551 8.04176C47.2215 8.15518 47.3505 8.31543 47.4258 8.50221C47.5011 8.689 47.5193 8.89392 47.478 9.09103C47.4367 9.28815 47.3379 9.46859 47.194 9.60949C47.0501 9.7504 46.8677 9.84544 46.6697 9.88259C46.5387 9.90748 46.404 9.90629 46.2734 9.8791C46.1428 9.85191 46.0188 9.79924 45.9085 9.7241C45.7983 9.64896 45.7039 9.55283 45.6309 9.4412C45.5578 9.32958 45.5074 9.20464 45.4827 9.07354Z" fill="#F08013"/>
<path d="M44.36 5.83049C44.2581 5.65686 44.2099 5.45688 44.2217 5.25587C44.2334 5.05486 44.3045 4.86186 44.426 4.70129C44.5475 4.54071 44.7139 4.41978 44.9041 4.3538C45.0943 4.28782 45.2999 4.27975 45.4947 4.33062C45.6895 4.38149 45.8649 4.48901 45.9985 4.63958C46.1322 4.79014 46.2183 4.97698 46.2457 5.17645C46.2732 5.37591 46.2409 5.57904 46.1528 5.76014C46.0648 5.94123 45.9251 6.09214 45.7512 6.19377C45.5185 6.32967 45.2413 6.36775 44.9805 6.29965C44.7198 6.23155 44.4966 6.06284 44.36 5.83049Z" fill="#F08013"/>
<path d="M42.7157 18.2727C42.8644 18.1372 43.0499 18.0489 43.2488 18.0188C43.4477 17.9888 43.651 18.0183 43.833 18.1038C44.0151 18.1893 44.1678 18.3268 44.2717 18.499C44.3756 18.6712 44.4261 18.8704 44.4169 19.0713C44.4076 19.2722 44.339 19.4659 44.2197 19.6278C44.1004 19.7898 43.9358 19.9127 43.7467 19.9811C43.5575 20.0495 43.3523 20.0603 43.1571 20.0121C42.9618 19.9639 42.7852 19.8589 42.6496 19.7104C42.5595 19.6116 42.4898 19.4961 42.4444 19.3704C42.3989 19.2447 42.3787 19.1113 42.3849 18.9778C42.391 18.8443 42.4234 18.7133 42.4802 18.5923C42.5369 18.4713 42.617 18.3627 42.7157 18.2727Z" fill="#F08013"/>
<path d="M7.46573 20.6272C7.31707 20.4913 7.13143 20.4026 6.93233 20.3723C6.73323 20.3419 6.5296 20.3714 6.34723 20.4568C6.16486 20.5423 6.01193 20.6799 5.90782 20.8523C5.8037 21.0247 5.75307 21.2241 5.76234 21.4253C5.77161 21.6265 5.84035 21.8204 5.95987 21.9825C6.07939 22.1446 6.24432 22.2676 6.43378 22.3359C6.62323 22.4042 6.8287 22.4148 7.02417 22.3663C7.21965 22.3178 7.39634 22.2124 7.53188 22.0635C7.71286 21.8639 7.80749 21.6008 7.79509 21.3317C7.7827 21.0625 7.66429 20.8093 7.46573 20.6272Z" fill="#F08013"/>
<path d="M7.46572 23.7841C7.31699 23.6484 7.13137 23.5599 6.93233 23.5297C6.73329 23.4995 6.52977 23.529 6.34752 23.6145C6.16526 23.7 6.01245 23.8377 5.90842 24.01C5.80438 24.1824 5.75379 24.3817 5.76304 24.5828C5.77229 24.7839 5.84097 24.9777 5.9604 25.1398C6.07982 25.3019 6.24462 25.4249 6.43396 25.4933C6.6233 25.5617 6.82867 25.5724 7.0241 25.5241C7.21952 25.4757 7.39623 25.3705 7.53187 25.2218C7.71262 25.0218 7.80708 24.7586 7.79469 24.4893C7.7823 24.22 7.66407 23.9666 7.46572 23.7841Z" fill="#F08013"/>
<path d="M5.31112 26.2472C5.16214 26.1124 4.97657 26.0248 4.77782 25.9954C4.57908 25.966 4.37608 25.9961 4.19445 26.082C4.01283 26.1679 3.86071 26.3056 3.75731 26.4779C3.65391 26.6501 3.60386 26.8492 3.61349 27.0498C3.62311 27.2505 3.69197 27.4438 3.81138 27.6054C3.93078 27.767 4.09538 27.8895 4.28439 27.9576C4.4734 28.0257 4.67836 28.0363 4.87337 27.988C5.06839 27.9398 5.24473 27.8348 5.38013 27.6864C5.47053 27.5875 5.54048 27.4718 5.58597 27.3459C5.63145 27.2199 5.65157 27.0862 5.64515 26.9524C5.63874 26.8186 5.60592 26.6875 5.54859 26.5664C5.49127 26.4454 5.41056 26.3369 5.31112 26.2472Z" fill="#F08013"/>
<path d="M8.10599 34.4848C7.95734 34.3489 7.77174 34.2603 7.57267 34.23C7.37361 34.1997 7.17003 34.2291 6.98771 34.3146C6.80538 34.4 6.6525 34.5376 6.54841 34.71C6.44433 34.8823 6.39372 35.0817 6.40298 35.2829C6.41224 35.484 6.48097 35.6779 6.60046 35.8399C6.71995 36.002 6.88483 36.125 7.07424 36.1933C7.26364 36.2616 7.46907 36.2722 7.6645 36.2238C7.85994 36.1753 8.0366 36.07 8.17214 35.921C8.35339 35.7216 8.4482 35.4584 8.4358 35.1892C8.4234 34.92 8.30481 34.6667 8.10599 34.4848Z" fill="#F08013"/>
<path d="M8.21353 37.6825C8.05798 37.5548 7.86807 37.4761 7.66779 37.4564C7.46752 37.4366 7.26589 37.4767 7.0884 37.5716C6.91091 37.6664 6.76552 37.8117 6.67063 37.9892C6.57575 38.1667 6.53562 38.3683 6.55532 38.5686C6.57502 38.7689 6.65367 38.9588 6.78132 39.1144C6.90897 39.27 7.07988 39.3842 7.27246 39.4426C7.46503 39.5011 7.67061 39.5011 7.86319 39.4427C8.05577 39.3843 8.22672 39.2701 8.3544 39.1145C8.43945 39.0114 8.50329 38.8924 8.54226 38.7646C8.58122 38.6367 8.59454 38.5023 8.58145 38.3693C8.56836 38.2362 8.52912 38.1071 8.46599 37.9892C8.40285 37.8714 8.31705 37.7671 8.21353 37.6825Z" fill="#F08013"/>
<path d="M6.15616 40.2439C5.99879 40.1185 5.8078 40.0427 5.60732 40.0259C5.40684 40.0091 5.20588 40.0521 5.02986 40.1496C4.85384 40.247 4.71067 40.3944 4.61844 40.5732C4.52622 40.752 4.48908 40.9541 4.51173 41.154C4.53439 41.3539 4.61581 41.5426 4.74571 41.6963C4.8756 41.8499 5.04814 41.9616 5.24149 42.0171C5.43485 42.0727 5.64034 42.0697 5.83198 42.0085C6.02362 41.9472 6.1928 41.8306 6.31813 41.6732C6.40158 41.5688 6.4636 41.449 6.50064 41.3206C6.53767 41.1921 6.54899 41.0577 6.53394 40.9249C6.51889 40.7921 6.47777 40.6636 6.41295 40.5467C6.34812 40.4299 6.26085 40.3269 6.15616 40.2439Z" fill="#F08013"/>
<path d="M5.95201 32.5175C5.80338 32.3818 5.61784 32.2932 5.41886 32.263C5.21988 32.2327 5.0164 32.2622 4.83417 32.3476C4.65194 32.433 4.49914 32.5706 4.39512 32.7429C4.29109 32.9152 4.24051 33.1145 4.24977 33.3155C4.25903 33.5166 4.32771 33.7104 4.44713 33.8724C4.56656 34.0344 4.73135 34.1573 4.92066 34.2257C5.10998 34.294 5.3153 34.3046 5.51066 34.2562C5.70602 34.2078 5.88264 34.1026 6.01816 33.9538C6.19898 33.7541 6.2935 33.4911 6.28111 33.222C6.26872 32.9529 6.15041 32.6997 5.95201 32.5175Z" fill="#F08013"/>
<path d="M10.182 48.2139C10.0181 48.097 9.82318 48.0314 9.62194 48.0254C9.4207 48.0193 9.22219 48.0731 9.05154 48.18C8.8809 48.2868 8.74579 48.4419 8.66333 48.6255C8.58087 48.8092 8.55476 49.0132 8.5883 49.2117C8.62185 49.4103 8.71354 49.5944 8.85178 49.7407C8.99001 49.8871 9.16857 49.9892 9.36484 50.034C9.56112 50.0789 9.76628 50.0645 9.95437 49.9926C10.1425 49.9208 10.305 49.7948 10.4214 49.6305C10.499 49.5219 10.5544 49.399 10.5844 49.2689C10.6144 49.1388 10.6183 49.0041 10.5961 48.8725C10.5738 48.7408 10.5258 48.6149 10.4548 48.5019C10.3837 48.3889 10.291 48.291 10.182 48.2139Z" fill="#F08013"/>
<path d="M10.4216 51.7483C10.2544 51.6366 10.0578 51.5769 9.8567 51.5768C9.65559 51.5768 9.45898 51.6364 9.29173 51.7481C9.12448 51.8598 8.99411 52.0185 8.9171 52.2043C8.84008 52.3901 8.81989 52.5945 8.85907 52.7918C8.89824 52.9891 8.99503 53.1703 9.13719 53.3125C9.27936 53.4548 9.46051 53.5517 9.65774 53.591C9.85497 53.6303 10.0594 53.6102 10.2453 53.5333C10.4311 53.4564 10.5899 53.3261 10.7017 53.1589C10.776 53.0479 10.8276 52.9234 10.8538 52.7924C10.8799 52.6614 10.8799 52.5266 10.8539 52.3956C10.8279 52.2646 10.7763 52.14 10.7021 52.029C10.6279 51.9179 10.5326 51.8226 10.4216 51.7483Z" fill="#F08013"/>
<path d="M7.7841 46.4961C7.61987 46.3797 7.42479 46.3146 7.22356 46.309C7.02233 46.3035 6.82398 46.3578 6.6536 46.465C6.48322 46.5722 6.34847 46.7276 6.26639 46.9114C6.18432 47.0952 6.1586 47.2992 6.19249 47.4977C6.22639 47.6961 6.31838 47.88 6.45682 48.0262C6.59527 48.1723 6.77395 48.2741 6.97026 48.3187C7.16657 48.3633 7.37169 48.3486 7.55967 48.2766C7.74766 48.2046 7.91006 48.0785 8.02634 47.9141C8.10364 47.8051 8.15869 47.682 8.18835 47.5517C8.21801 47.4214 8.22169 47.2866 8.1992 47.1549C8.1767 47.0232 8.12846 46.8972 8.05723 46.7841C7.986 46.6711 7.89319 46.5732 7.7841 46.4961Z" fill="#F08013"/>
<path d="M2.86968 15.8563C2.78204 15.6754 2.64274 15.5246 2.46938 15.4228C2.29602 15.321 2.09638 15.2729 1.8957 15.2846C1.69501 15.2963 1.50229 15.3672 1.34189 15.4883C1.18148 15.6095 1.0606 15.7755 0.994506 15.9653C0.928416 16.1552 0.920089 16.3604 0.970576 16.5549C1.02106 16.7495 1.1281 16.9248 1.27816 17.0585C1.42821 17.1923 1.61456 17.2786 1.81363 17.3065C2.01271 17.3344 2.21559 17.3026 2.39663 17.2152C2.51701 17.1572 2.62476 17.0759 2.71371 16.9762C2.80266 16.8764 2.87106 16.7601 2.915 16.6339C2.95894 16.5077 2.97755 16.374 2.96978 16.2406C2.962 16.1072 2.92799 15.9766 2.86968 15.8563Z" fill="#F08013"/>
<path d="M2.0332 12.6923C2.02363 12.4914 1.95468 12.2978 1.83508 12.136C1.71548 11.9743 1.55059 11.8516 1.36128 11.7835C1.17196 11.7155 0.96672 11.7051 0.7715 11.7537C0.576281 11.8023 0.399854 11.9077 0.264529 12.0565C0.129204 12.2054 0.0410571 12.391 0.0112372 12.59C-0.0185826 12.7889 0.011263 12.9923 0.0969992 13.1742C0.182735 13.3562 0.320511 13.5087 0.492906 13.6124C0.665301 13.7161 0.864573 13.7663 1.06552 13.7568C1.19899 13.7505 1.32992 13.718 1.45081 13.6611C1.57171 13.6042 1.6802 13.5241 1.77007 13.4252C1.85995 13.3263 1.92945 13.2107 1.97461 13.085C2.01976 12.9592 2.03967 12.8258 2.0332 12.6923Z" fill="#F08013"/>
<path d="M2.15712 9.07353C2.19486 8.87578 2.17309 8.67128 2.09456 8.48592C2.01604 8.30055 1.88429 8.14264 1.71599 8.03217C1.5477 7.9217 1.35041 7.86364 1.1491 7.86533C0.947796 7.86703 0.751514 7.9284 0.585098 8.04168C0.418682 8.15497 0.289609 8.31507 0.214216 8.50174C0.138822 8.6884 0.120496 8.89323 0.161555 9.09032C0.202614 9.2874 0.301212 9.46787 0.444875 9.6089C0.588537 9.74993 0.770806 9.84517 0.968616 9.88257C1.09978 9.9075 1.23457 9.90635 1.36528 9.87918C1.496 9.85201 1.62008 9.79936 1.73045 9.72423C1.84082 9.6491 1.9353 9.55297 2.00851 9.44132C2.08172 9.32967 2.13222 9.20469 2.15712 9.07353Z" fill="#F08013"/>
<path d="M3.27944 5.83049C3.38138 5.65686 3.42953 5.45688 3.41777 5.25587C3.40602 5.05486 3.33491 4.86186 3.21343 4.70129C3.09195 4.54071 2.92556 4.41978 2.73533 4.3538C2.5451 4.28782 2.33957 4.27975 2.14475 4.33062C1.94993 4.38149 1.77458 4.48901 1.64089 4.63958C1.5072 4.79014 1.42118 4.97698 1.39371 5.17645C1.36625 5.37591 1.39857 5.57904 1.48659 5.76014C1.57461 5.94123 1.71438 6.09214 1.8882 6.19377C2.00335 6.26146 2.13073 6.30577 2.26303 6.32414C2.39534 6.34252 2.52997 6.3346 2.65921 6.30086C2.78845 6.26711 2.90977 6.20819 3.0162 6.12748C3.12263 6.04676 3.21208 5.94584 3.27944 5.83049Z" fill="#F08013"/>
<path d="M4.92403 18.2727C4.77535 18.1372 4.58985 18.0489 4.39097 18.0188C4.19209 17.9888 3.98877 18.0183 3.8067 18.1038C3.62464 18.1893 3.472 18.3268 3.36808 18.499C3.26416 18.6712 3.21363 18.8704 3.22288 19.0713C3.23212 19.2722 3.30073 19.4659 3.42002 19.6278C3.53931 19.7898 3.70393 19.9127 3.89308 19.9811C4.08223 20.0495 4.28741 20.0603 4.48268 20.0121C4.67796 19.9639 4.85457 19.8589 4.99018 19.7104C5.1716 19.5107 5.2665 19.2473 5.2541 18.9779C5.2417 18.7084 5.12301 18.4548 4.92403 18.2727Z" fill="#F08013"/>
<path d="M17.1706 48.0816L11.3645 43.9888C11.2541 43.9006 11.1622 43.7915 11.094 43.6677C11.0258 43.5439 10.9827 43.4079 10.9671 43.2674C10.9515 43.1269 10.9638 42.9848 11.0033 42.8491C11.0427 42.7133 11.1086 42.5867 11.197 42.4765L15.0806 37.9325C15.2715 37.7231 15.4193 37.4782 15.5154 37.2116C15.6115 36.9451 15.6542 36.6622 15.6408 36.3791C15.6275 36.0961 15.5585 35.8184 15.4377 35.5621C15.3169 35.3058 15.1468 35.0758 14.937 34.8853L10.0748 30.4547C9.86443 30.2625 9.73898 29.9947 9.72604 29.71C9.7131 29.4253 9.81373 29.1472 10.0058 28.9367L14.44 24.0772C14.8253 23.6544 15.0269 23.0958 15.0005 22.5244C14.9741 21.953 14.7218 21.4154 14.2992 21.0299L7.8612 15.1467C6.98108 14.3456 7.00361 13.0431 7.72033 12.1009L14.423 3.15224C15.0806 2.28767 15.0398 1.28223 14.3047 0.611827C13.9386 0.27869 13.2161 -0.112034 11.8925 0.0302626C5.57271 0.710338 1.3287 6.25279 2.02987 12.6612C2.37887 15.8816 3.52677 17.0363 4.15894 17.6107L9.00433 22.0392C9.10914 22.134 9.19417 22.2487 9.25453 22.3765C9.3149 22.5043 9.34941 22.6428 9.35609 22.784C9.36276 22.9252 9.34147 23.0663 9.29344 23.1992C9.24541 23.3322 9.17158 23.4543 9.0762 23.5586L4.64627 28.4167C4.45518 28.6259 4.3072 28.8706 4.21078 29.137C4.11437 29.4034 4.07141 29.6862 4.08436 29.9692C4.09731 30.2522 4.16591 30.5299 4.28626 30.7864C4.4066 31.0429 4.57632 31.2731 4.78571 31.464L9.64523 35.8967C9.74973 35.9916 9.83449 36.1062 9.89467 36.2339C9.95485 36.3616 9.98926 36.4998 9.99593 36.6408C10.0026 36.7818 9.98142 36.9228 9.93357 37.0555C9.88572 37.1883 9.81216 37.3104 9.71709 37.4147L5.81463 42.3038C5.63743 42.5249 5.50555 42.7788 5.42649 43.0509C5.34744 43.3231 5.32278 43.6081 5.3539 43.8898C5.38503 44.1714 5.47134 44.4442 5.60791 44.6925C5.74447 44.9408 5.92862 45.1598 6.14983 45.3369L11.9697 49.4852C12.0808 49.5723 12.1735 49.6804 12.2428 49.8033C12.312 49.9262 12.3563 50.0616 12.3732 50.2017C12.39 50.3417 12.3791 50.4838 12.3411 50.6196C12.303 50.7555 12.2386 50.8825 12.1514 50.9934L9.64491 54.7404C9.31174 55.2056 9.17702 55.7842 9.27041 56.3487C9.36379 56.9133 9.67763 57.4177 10.1429 57.7508C10.6081 58.084 11.1867 58.2187 11.7512 58.1253C12.3158 58.032 12.8201 57.7181 13.1533 57.2529L17.5369 51.1092C17.7122 50.8866 17.8419 50.6316 17.9184 50.3587C17.9949 50.0859 18.0167 49.8006 17.9827 49.5193C17.9486 49.238 17.8594 48.9662 17.72 48.7195C17.5807 48.4728 17.394 48.256 17.1706 48.0816ZM8.99498 2.82259C9.11061 2.69668 9.26096 2.60785 9.42704 2.56732C9.59312 2.52678 9.76748 2.53635 9.92812 2.59482C10.0888 2.65329 10.2285 2.75804 10.3296 2.89584C10.4308 3.03365 10.4889 3.19834 10.4965 3.36912C10.5042 3.5399 10.4611 3.70912 10.3726 3.85542C10.2842 4.00172 10.1544 4.11855 9.99964 4.19115C9.84487 4.26375 9.67206 4.28887 9.50302 4.26335C9.33398 4.23783 9.1763 4.1628 9.04986 4.04774C8.96578 3.97094 8.89765 3.87832 8.84938 3.77518C8.8011 3.67203 8.77363 3.56038 8.76853 3.44661C8.76343 3.33285 8.78081 3.21919 8.81967 3.11215C8.85852 3.0051 8.91809 2.90675 8.99498 2.82274V2.82259Z" fill="#F08013"/>
<path d="M35.7467 0.0302654C34.423 -0.112508 33.7003 0.278058 33.3344 0.61183C32.5993 1.28207 32.5557 2.2875 33.2163 3.15223L39.919 12.1009C40.6357 13.0429 40.6582 14.3455 39.7781 15.1468L33.3402 21.03C32.9175 21.4154 32.6652 21.9529 32.6388 22.5243C32.6123 23.0957 32.8139 23.6542 33.1991 24.077L37.6351 28.9361C37.8266 29.1469 37.9268 29.4251 37.9136 29.7096C37.9004 29.9942 37.7749 30.2619 37.5646 30.4541L32.6994 34.885C32.2773 35.2708 32.0254 35.8082 31.999 36.3795C31.9726 36.9507 32.1738 37.5091 32.5586 37.9322L36.4421 42.4762C36.5307 42.5864 36.5967 42.713 36.6362 42.8487C36.6758 42.9844 36.6881 43.1266 36.6726 43.2671C36.657 43.4077 36.6138 43.5437 36.5455 43.6675C36.4772 43.7913 36.3852 43.9004 36.2746 43.9885L30.4685 48.0813C30.2453 48.2558 30.0587 48.4726 29.9195 48.7193C29.7802 48.966 29.691 49.2378 29.657 49.5191C29.623 49.8004 29.6448 50.0856 29.7212 50.3584C29.7977 50.6312 29.9272 50.8862 30.1024 51.1089L34.4865 57.2527C34.8196 57.7181 35.3239 58.032 35.8885 58.1255C36.4531 58.2189 37.0317 58.0843 37.4971 57.7512C37.9624 57.418 38.2763 56.9137 38.3698 56.3491C38.4633 55.7845 38.3286 55.2059 37.9955 54.7406L35.4876 50.9936C35.4007 50.8824 35.3364 50.7553 35.2986 50.6193C35.2608 50.4834 35.2502 50.3413 35.2673 50.2012C35.2845 50.0612 35.329 49.9259 35.3985 49.803C35.468 49.6802 35.5609 49.5723 35.6721 49.4854L41.4892 45.3371C41.9356 44.9791 42.2217 44.4586 42.2845 43.8898C42.3474 43.3211 42.1818 42.7506 41.8242 42.3039L37.9251 37.4149C37.8294 37.311 37.7552 37.1892 37.7068 37.0565C37.6584 36.9239 37.6367 36.7829 37.643 36.6418C37.6493 36.5007 37.6834 36.3623 37.7434 36.2345C37.8034 36.1066 37.8881 35.9919 37.9926 35.8969L42.8536 31.4641C43.2763 31.0788 43.5288 30.5414 43.5555 29.97C43.5823 29.3987 43.3812 28.84 42.9964 28.4169L38.5629 23.5583C38.3716 23.3471 38.2716 23.0688 38.2848 22.7841C38.298 22.4994 38.4233 22.2315 38.6334 22.0389L43.4831 17.6104C44.1125 17.0358 45.2598 15.8812 45.6121 12.6609C46.3106 6.25295 42.0669 0.710499 35.7467 0.0302654ZM38.5898 4.04774C38.4632 4.16312 38.3054 4.23842 38.1361 4.26412C37.9668 4.28983 37.7937 4.26478 37.6387 4.19215C37.4836 4.11952 37.3536 4.00257 37.2649 3.85606C37.1763 3.70956 37.1331 3.54007 37.1408 3.36902C37.1484 3.19797 37.2066 3.03303 37.308 2.89503C37.4094 2.75703 37.5493 2.65218 37.7103 2.5937C37.8712 2.53523 38.0459 2.52576 38.2122 2.5665C38.3785 2.60724 38.529 2.69635 38.6446 2.82259C38.7216 2.90657 38.7813 3.00491 38.8202 3.11198C38.8591 3.21905 38.8765 3.33275 38.8714 3.44655C38.8663 3.56035 38.8388 3.67203 38.7904 3.77519C38.7421 3.87836 38.6739 3.97097 38.5898 4.04774Z" fill="#F08013"/>
<path d="M59.0324 39.6211H68.878V35.7938H59.0324V30.295H69.1598V26.5212H54.8573V49.1148H69.4864V45.2888H59.0323L59.0324 39.6211ZM75.916 28.0842H71.7279V49.1148H86.4529V45.5297H75.916V28.0842ZM105.619 37.0301C106.175 36.6915 106.66 36.2488 107.048 35.7261C107.668 34.8853 107.94 33.8392 107.94 32.645C107.94 30.7314 107.293 29.1612 105.987 28.0841C104.684 26.9942 102.907 26.4999 100.664 26.4999H93.7711V49.1148H101.846C104.168 49.1148 106.073 48.5472 107.516 47.3968C108.947 46.2449 109.714 44.6424 109.686 42.7035C109.712 41.2778 109.21 39.8929 108.275 38.8157C107.545 38.0172 106.635 37.405 105.62 37.0302M97.9003 30.3234H100.342C101.624 30.3234 102.466 30.5544 102.924 30.9275C103.157 31.1268 103.338 31.3802 103.45 31.6654C103.573 32.0442 103.633 32.441 103.626 32.8393C103.626 33.8864 103.315 34.5347 102.685 35.0127C102.082 35.4646 101.011 35.7533 99.476 35.7533H97.9003V30.3234ZM104.514 44.5769C103.972 44.9909 102.973 45.2739 101.519 45.2457H97.8998V39.5943H101.01C102.644 39.5943 103.777 39.8731 104.398 40.3308C105.014 40.7983 105.339 41.4221 105.339 42.4883C105.339 43.5304 105.061 44.1527 104.514 44.5766M142.581 36.795L142.134 36.5513C140.936 35.8557 140.061 35.2233 139.497 34.6841C139.267 34.4708 139.07 34.224 138.914 33.952C138.808 33.8056 138.748 33.6312 138.741 33.4507C138.736 33.2065 138.795 32.9654 138.913 32.7512C139.03 32.537 139.201 32.3571 139.409 32.2292C139.892 31.8813 140.518 31.6884 141.367 31.6884C142.095 31.6854 142.817 31.8251 143.492 32.0996C144.349 32.4715 145.154 32.9544 145.885 33.5358L146.73 34.1638V29.6633L146.476 29.5112C145.689 29.0741 144.857 28.7251 143.993 28.4707C143.178 28.2445 142.336 28.1261 141.49 28.1186C139.611 28.1186 137.995 28.6453 136.74 29.6891C136.138 30.1829 135.655 30.8062 135.328 31.5125C135 32.2188 134.836 32.99 134.848 33.7685C134.823 34.8809 135.175 35.9691 135.846 36.8565C136.335 37.4143 136.892 37.9098 137.502 38.3318C138.261 38.9064 139.233 39.5316 140.413 40.254C141.152 40.6779 141.749 41.075 142.214 41.403C142.552 41.6313 142.867 41.8921 143.154 42.1818C143.455 42.5503 143.623 43.0099 143.63 43.4858C143.596 44.1152 143.408 44.5066 142.932 44.8756C142.474 45.2235 141.779 45.4361 140.826 45.4361C139.954 45.4441 139.094 45.237 138.322 44.8332C137.549 44.4376 136.697 43.742 135.784 42.7957L134.871 41.8071V47.0294L135.097 47.1772C135.911 47.8313 136.838 48.3318 137.831 48.6543C138.857 48.994 139.932 49.1582 141.012 49.1401C142.908 49.1401 144.52 48.6134 145.759 47.5756C146.363 47.0898 146.848 46.4731 147.178 45.7722C147.508 45.0714 147.675 44.3046 147.665 43.5299C147.665 42.1612 147.342 40.9614 146.649 39.987C145.951 38.9876 144.606 37.9651 142.58 36.7948M168.877 45.6366C170.446 43.7666 171.226 41.5558 171.226 39.0592C171.231 37.5889 170.95 36.1317 170.399 34.7685C169.813 33.4322 168.971 32.2234 167.921 31.2102C166.882 30.1863 165.649 29.381 164.293 28.8417C162.91 28.2942 161.435 28.0146 159.948 28.0179C158.475 28.014 157.016 28.2937 155.649 28.8417C154.286 29.3853 153.042 30.1898 151.988 31.2102C150.953 32.2091 150.13 33.4052 149.566 34.7278C148.984 36.0274 148.684 37.4354 148.686 38.8591C148.686 41.443 149.471 43.7426 151.02 45.6872C152.538 47.6135 154.57 48.895 157.054 49.5243C158.905 50.8326 160.641 51.8337 162.291 52.5208C163.994 53.2375 165.538 53.5868 166.944 53.5868H167.356C167.471 53.5883 167.586 53.5769 167.698 53.553L167.866 53.5276L170.959 50.8084L170.725 50.155L170.555 49.7438L170.145 49.8325C169.791 49.9077 169.433 49.9631 169.072 49.9986C168.791 50.0441 168.506 50.063 168.22 50.0549C167.366 50.0433 166.516 49.9314 165.687 49.7218C165.137 49.5669 164.51 49.3472 163.844 49.0882C165.88 48.332 167.595 47.1985 168.877 45.6355M166.576 41.2942C166.22 42.157 165.694 42.9398 165.03 43.5965L165.008 43.6147C164.346 44.2981 163.557 44.8446 162.684 45.2228C161.815 45.5757 160.886 45.7583 159.948 45.7608C159.007 45.7603 158.075 45.5706 157.208 45.2032C156.338 44.825 155.546 44.2861 154.876 43.6147V43.5965C154.21 42.9444 153.688 42.1602 153.344 41.2942C152.975 40.4277 152.79 39.4943 152.799 38.5527C152.79 37.5998 152.975 36.6551 153.344 35.7765C153.689 34.9169 154.206 34.1371 154.865 33.4855C155.547 32.8141 156.351 32.2781 157.233 31.9056C158.097 31.5477 159.023 31.3634 159.959 31.3634C160.894 31.3634 161.82 31.5477 162.684 31.9056C163.555 32.259 164.342 32.791 164.995 33.4672C165.676 34.1424 166.214 34.9485 166.576 35.8371C166.944 36.695 167.128 37.6202 167.117 38.5534C167.124 39.4944 166.94 40.427 166.576 41.295M187.321 41.0095C187.301 42.3542 186.873 43.3554 185.91 44.1525C184.981 44.9397 183.716 45.3818 182.066 45.3818C181.195 45.3934 180.331 45.2301 179.524 44.9016C178.783 44.5875 178.128 44.1026 177.61 43.4864C177.325 43.1479 177.126 42.745 177.032 42.3125C176.904 41.8591 176.829 40.986 176.829 39.7258V28.0998H172.94V39.8389C172.94 41.4427 173.049 42.6396 173.292 43.4859C173.521 44.3151 173.926 45.085 174.48 45.7432C175.356 46.8349 176.483 47.6995 177.764 48.2638C179.123 48.8424 180.588 49.1322 182.065 49.1148C184.708 49.1148 186.933 48.377 188.627 46.8998C190.348 45.4367 191.218 43.4442 191.184 41.0954V28.0998H187.32L187.321 41.0095ZM197.859 45.4873V40.3308H207.77V36.7298H197.859V31.7763H208.077V28.1911H193.672V49.0698H208.408V45.4875L197.859 45.4873ZM130.176 31.0514C129.121 30.0516 127.882 29.2652 126.529 28.7353C125.131 28.2043 123.649 27.9324 122.154 27.9327C120.684 27.934 119.226 28.206 117.855 28.7353C116.489 29.2531 115.241 30.0408 114.187 31.0514C113.134 32.0185 112.29 33.1898 111.705 34.4938C111.141 35.773 110.846 37.155 110.839 38.5534C110.827 39.9984 111.119 41.4298 111.696 42.7548C112.272 44.0798 113.121 45.2688 114.187 46.2446C115.242 47.242 116.481 48.024 117.835 48.5469C120.627 49.6085 123.709 49.6156 126.505 48.5667C127.873 48.0327 129.127 47.2448 130.202 46.2446C131.235 45.2717 132.069 44.1059 132.655 42.813C133.218 41.5233 133.506 40.1304 133.5 38.7232C133.512 37.2933 133.231 35.8761 132.674 34.5593C132.09 33.2312 131.239 32.0372 130.175 31.0512M128.828 41.309C128.464 42.1634 127.936 42.9375 127.272 43.5871C126.609 44.2366 125.823 44.7487 124.961 45.094C123.162 45.7888 121.169 45.7888 119.37 45.094C118.51 44.7396 117.725 44.225 117.057 43.5775C116.387 42.9385 115.86 42.1656 115.508 41.309C115.142 40.4677 114.957 39.5583 114.966 38.6405C114.961 37.7192 115.143 36.8063 115.503 35.9579C115.862 35.1096 116.391 34.3436 117.057 33.7069C117.753 33.0585 118.557 32.5371 119.433 32.1664C121.192 31.466 123.153 31.466 124.912 32.1664C125.787 32.5141 126.581 33.0385 127.244 33.7069C127.928 34.3592 128.474 35.1427 128.848 36.0107C129.196 36.8435 129.373 37.7382 129.367 38.641C129.376 39.5584 129.193 40.4675 128.828 41.3094M60.8152 21.542C62.6823 21.542 64.1651 20.9492 65.257 19.7812C66.3357 18.6073 66.9017 17.0198 66.9017 15.04V6.41302H65.6577V15.1082C65.6577 16.6924 65.224 17.954 64.365 18.8919C63.4693 19.8226 62.2951 20.3037 60.815 20.3037C59.3378 20.3037 58.1634 19.8221 57.2947 18.8919C56.4033 17.954 55.9655 16.6924 55.9655 15.1082V6.41302H54.7784V15.0406C54.7784 17.0395 55.3135 18.6285 56.4033 19.7818C57.489 20.9492 58.969 21.5427 60.815 21.5427M72.6166 8.65678L82.1765 20.1908H83.1327V7.15449H82.1047V18.5129L72.6576 7.15449H71.5706V20.1909H72.6176L72.6166 8.65678ZM87.8724 20.3865H88.9806V7.32899H87.8724V20.3865ZM98.3673 20.6034L103.845 7.33026H102.734L98.2767 18.2856L93.8725 7.32899H92.7145L98.209 20.6021L98.3673 20.6034ZM114.098 19.4939H107.989V14.1888H113.746V13.3523H107.989V8.17469H113.947V7.32899H106.947V20.3848H114.098V19.4939ZM119.727 14.1077H120.778C121.336 14.0952 121.893 14.1467 122.439 14.2613C122.786 14.3371 123.104 14.5095 123.358 14.7584C123.604 15.0353 123.834 15.3264 124.046 15.6301C124.332 16.0229 124.697 16.5426 125.088 17.1791L127.154 20.3869H128.325L124.76 14.8928C124.618 14.6657 124.453 14.4538 124.268 14.2605C124.064 14.0848 123.845 13.9266 123.614 13.7874C124.433 13.5226 125.051 13.1256 125.461 12.5849C125.873 12.0597 126.069 11.388 126.069 10.6052C126.069 9.54626 125.717 8.74086 124.987 8.17469C124.237 7.6128 123.201 7.32978 121.834 7.32978H118.699V20.3856H119.727V14.1077ZM119.727 8.22323H121.897C122.872 8.22323 123.614 8.4147 124.156 8.84984C124.678 9.26372 124.936 9.851 124.936 10.6058C124.957 11.0951 124.838 11.5802 124.592 12.0042C124.34 12.4042 123.966 12.7131 123.525 12.8857C123.219 13.0134 122.899 13.1039 122.572 13.1554C122.17 13.192 121.499 13.2146 120.533 13.2146H119.727L119.727 8.22323ZM138.234 16.9958C138.231 16.5743 138.16 16.156 138.025 15.7567C137.875 15.3764 137.661 15.0251 137.39 14.7189C136.98 14.2613 136.169 13.788 135 13.3071C134.871 13.2423 134.788 13.2141 134.723 13.1705C133.653 12.7171 132.962 12.3297 132.654 11.9594C132.329 11.6158 132.176 11.1345 132.176 10.5696C132.166 10.2403 132.226 9.91266 132.353 9.60864C132.48 9.30462 132.671 9.03121 132.912 8.80669C133.436 8.3384 134.119 8.08935 134.822 8.11107C135.312 8.1133 135.799 8.20096 136.259 8.37013C136.808 8.57722 137.326 8.85513 137.802 9.19678V8.027C137.343 7.75752 136.855 7.53844 136.348 7.37357C135.867 7.23788 135.371 7.16426 134.871 7.15449C133.76 7.15449 132.869 7.48112 132.176 8.13455C131.835 8.44799 131.566 8.83078 131.387 9.25709C131.207 9.6834 131.121 10.1433 131.134 10.6058C131.134 11.4339 131.351 12.1111 131.81 12.6335C132.263 13.1544 133.108 13.6768 134.348 14.1894C135.545 14.697 136.304 15.1299 136.636 15.4989C136.978 15.9065 137.153 16.4281 137.126 16.9592C137.126 17.7617 136.895 18.3869 136.391 18.8644C135.915 19.3221 135.236 19.5643 134.394 19.5643C133.853 19.5509 133.319 19.4308 132.824 19.2109C132.199 18.9392 131.615 18.5815 131.09 18.148V19.4055C131.599 19.7697 132.156 20.0629 132.744 20.2772C133.282 20.4627 133.846 20.5578 134.414 20.5588C135.531 20.5588 136.432 20.2415 137.153 19.5632C137.506 19.237 137.785 18.839 137.972 18.396C138.158 17.953 138.248 17.4752 138.234 16.9947M143.492 7.32899H142.393V20.3848H143.492V7.32899ZM155.294 20.0783C155.978 19.8989 156.622 19.5901 157.189 19.1687C157.994 18.5639 158.641 17.7751 159.077 16.8684C159.518 15.9222 159.746 14.8911 159.746 13.8473C159.746 12.8035 159.518 11.7724 159.077 10.8261C158.641 9.91975 157.993 9.13105 157.189 8.52591C156.625 8.10915 155.988 7.79984 155.311 7.61343C154.488 7.41735 153.645 7.32231 152.799 7.33042H148.325V20.3862H152.799C153.641 20.3997 154.481 20.2964 155.294 20.0793M149.431 19.4569V8.26051H152.538C153.273 8.25802 154.006 8.33245 154.725 8.4826C155.292 8.60629 155.832 8.83246 156.318 9.14998C157.046 9.6543 157.632 10.3371 158.02 11.1329C158.428 11.9861 158.633 12.922 158.619 13.8675C158.628 14.8148 158.423 15.752 158.02 16.6092C157.626 17.4006 157.041 18.081 156.318 18.589C155.832 18.9074 155.292 19.135 154.725 19.2607C154.005 19.4001 153.272 19.4657 152.538 19.4564L149.431 19.4569ZM167.073 7.82711L161.705 20.3862H162.747L164.577 16.0421H169.981L171.814 20.3862H172.858L167.489 7.82711H167.073ZM164.917 15.1913L167.292 9.5461L169.638 15.1913H164.917ZM183.588 20.0789C184.272 19.9067 184.914 19.5973 185.475 19.1693C186.283 18.5684 186.931 17.7786 187.363 16.8691C187.811 15.9249 188.043 14.8929 188.043 13.8479C188.043 12.8029 187.811 11.771 187.363 10.8268C186.931 9.91748 186.283 9.12777 185.475 8.52654C184.918 8.10351 184.283 7.79353 183.607 7.61406C182.781 7.41863 181.936 7.3236 181.087 7.33105H176.635V20.3869H181.087C181.931 20.4007 182.773 20.2974 183.588 20.0799M177.716 19.4576V8.26051H180.833C181.567 8.25802 182.299 8.33245 183.018 8.4826C183.584 8.60628 184.123 8.83246 184.608 9.14998C185.337 9.64969 185.92 10.334 186.299 11.1329C186.718 11.9824 186.928 12.9202 186.91 13.8675C186.923 14.8166 186.714 15.7556 186.299 16.6092C185.915 17.4037 185.332 18.0857 184.608 18.589C184.123 18.9074 183.584 19.135 183.018 19.2607C182.298 19.4001 181.566 19.4657 180.833 19.4564L177.716 19.4576Z" fill="white"/>
<path d="M229.544 13.5L229.544 46.5" stroke="white" stroke-linecap="round"/>
<path d="M257.52 27H252.606C252.318 27 252.21 26.928 252.21 26.622V14.778C252.21 14.49 252.3 14.4 252.606 14.4H257.07C259.122 14.4 261.57 15.246 261.57 17.892C261.57 19.332 260.562 20.106 259.788 20.502V20.52C260.598 20.862 262.02 21.69 262.02 23.508C262.02 26.1 259.896 27 257.52 27ZM254.388 25.182H257.412C259.122 25.182 259.842 24.534 259.842 23.31C259.842 22.302 258.924 21.474 257.484 21.474H254.388V25.182ZM254.388 19.728H257.178C258.582 19.728 259.392 19.008 259.392 18.108C259.392 16.812 258.546 16.218 256.98 16.218H254.388V19.728ZM264.593 26.622V18.216C264.593 17.928 264.683 17.838 264.971 17.838H266.267C266.555 17.838 266.645 17.928 266.645 18.216V26.622C266.645 26.91 266.555 27 266.267 27H264.971C264.683 27 264.593 26.91 264.593 26.622ZM264.341 14.976C264.341 14.274 264.899 13.698 265.601 13.698C266.285 13.698 266.861 14.274 266.861 14.976C266.861 15.678 266.285 16.218 265.601 16.218C264.899 16.218 264.341 15.678 264.341 14.976ZM271.997 14.094V19.314C272.249 18.846 273.257 17.64 275.003 17.64C277.451 17.64 279.161 19.8 279.161 22.428C279.161 25.002 277.451 27.198 275.003 27.198C273.257 27.198 272.267 26.208 271.637 25.452L271.385 26.622C271.259 26.892 271.169 27 270.953 27H270.323C270.035 27 269.945 26.91 269.945 26.622V14.094C269.945 13.806 270.035 13.716 270.323 13.716H271.619C271.907 13.716 271.997 13.806 271.997 14.094ZM274.553 25.398C276.047 25.398 277.109 24.102 277.109 22.428C277.109 20.808 276.047 19.476 274.553 19.476C273.041 19.476 271.979 20.844 271.979 22.428C271.979 24.012 273.041 25.398 274.553 25.398ZM281.532 26.622V14.094C281.532 13.806 281.622 13.716 281.91 13.716H283.206C283.512 13.716 283.584 13.806 283.584 14.094V26.622C283.584 26.91 283.494 27 283.206 27H281.91C281.622 27 281.532 26.91 281.532 26.622ZM287.04 26.622V18.216C287.04 17.928 287.13 17.838 287.418 17.838H288.714C289.002 17.838 289.092 17.928 289.092 18.216V26.622C289.092 26.91 289.002 27 288.714 27H287.418C287.13 27 287.04 26.91 287.04 26.622ZM286.788 14.976C286.788 14.274 287.346 13.698 288.048 13.698C288.732 13.698 289.308 14.274 289.308 14.976C289.308 15.678 288.732 16.218 288.048 16.218C287.346 16.218 286.788 15.678 286.788 14.976ZM291.69 22.428C291.69 19.8 293.832 17.64 296.46 17.64C299.088 17.64 301.212 19.8 301.212 22.428C301.212 25.056 299.088 27.198 296.46 27.198C293.832 27.198 291.69 25.056 291.69 22.428ZM296.46 25.398C297.954 25.398 299.178 24.102 299.178 22.428C299.178 20.754 297.954 19.476 296.46 19.476C294.948 19.476 293.724 20.754 293.724 22.428C293.724 24.102 294.948 25.398 296.46 25.398ZM308.958 26.748C308.238 27.198 307.446 27.198 307.212 27.198C304.836 27.198 303.738 25.704 303.738 23.22V19.476H303.072C302.784 19.476 302.694 19.386 302.694 19.098V18.216C302.694 17.928 302.784 17.838 303.072 17.838H303.738V16.074C303.738 15.786 303.81 15.696 304.116 15.696H305.394C305.682 15.696 305.772 15.786 305.772 16.074V17.838H308.544C308.832 17.838 308.922 17.928 308.922 18.234V19.098C308.922 19.386 308.832 19.476 308.544 19.476H305.772V23.094C305.772 24.714 306.33 25.362 307.428 25.362C307.824 25.362 308.13 25.326 308.508 25.146C308.85 24.966 308.922 24.984 308.994 25.362L309.156 26.262C309.21 26.532 309.192 26.622 308.958 26.748ZM318.559 24.786L319.081 25.434C319.261 25.65 319.297 25.758 319.135 25.938C318.307 26.748 316.813 27.198 315.499 27.198C312.781 27.198 310.657 25.056 310.657 22.428C310.657 19.8 312.781 17.64 315.409 17.64C318.343 17.64 319.873 19.998 319.873 22.698C319.873 22.986 319.819 23.094 319.513 23.094H312.781C312.979 24.39 314.149 25.434 315.553 25.434C316.183 25.434 317.083 25.29 318.019 24.75C318.289 24.624 318.379 24.552 318.559 24.786ZM312.817 21.744H317.785C317.659 20.574 316.867 19.332 315.355 19.332C313.825 19.332 312.943 20.574 312.817 21.744ZM326.061 25.362C326.763 25.362 327.555 25.146 328.131 24.588C328.347 24.39 328.473 24.444 328.671 24.66L329.337 25.38C329.517 25.596 329.553 25.686 329.391 25.848C328.473 26.748 327.303 27.198 326.061 27.198C323.433 27.198 321.309 25.056 321.309 22.428C321.309 19.8 323.433 17.64 326.061 17.64C327.303 17.64 328.473 18.09 329.391 18.99C329.553 19.152 329.517 19.242 329.337 19.458L328.671 20.178C328.473 20.394 328.347 20.448 328.131 20.25C327.555 19.692 326.763 19.476 326.061 19.476C324.567 19.476 323.343 20.754 323.343 22.428C323.343 24.102 324.567 25.362 326.061 25.362ZM332.509 19.674C332.221 19.71 332.149 19.602 332.077 19.314L331.861 18.45C331.789 18.162 331.825 18.054 332.095 17.982C332.311 17.928 333.913 17.64 335.245 17.64C338.683 17.64 339.295 19.152 339.295 21.996V26.622C339.295 26.91 339.223 27 338.917 27H338.161C337.945 27 337.855 26.91 337.747 26.622L337.621 25.776C337.117 26.334 336.127 27.198 334.255 27.198C332.635 27.198 331.105 26.208 331.105 24.192C331.105 22.23 332.653 21.294 334.597 21.294C335.353 21.294 336.451 21.474 337.243 21.762C337.243 20.07 336.811 19.404 335.155 19.404C334.129 19.404 333.175 19.548 332.509 19.674ZM335.083 22.752C333.715 22.752 333.139 23.364 333.139 24.192C333.139 24.894 333.661 25.632 334.903 25.632C335.821 25.632 336.703 25.038 337.243 24.354V23.22C336.469 22.95 335.875 22.752 335.083 22.752ZM255.576 34.074H253.092C252.804 34.074 252.714 33.984 252.714 33.696V32.778C252.714 32.49 252.804 32.4 253.092 32.4H257.376C257.682 32.4 257.772 32.49 257.772 32.778V40.104C257.772 43.902 255.558 45.216 251.94 45.234C251.544 45.234 251.508 45.144 251.472 44.856L251.328 43.704C251.31 43.416 251.454 43.326 251.778 43.326C254.604 43.326 255.576 42.39 255.576 40.104V34.074ZM266.771 44.622L266.519 43.488C265.979 44.226 265.187 45.198 263.657 45.198C261.677 45.198 260.165 44.136 260.165 41.04V36.216C260.165 35.928 260.255 35.838 260.543 35.838H261.839C262.127 35.838 262.217 35.928 262.217 36.216V40.608C262.217 42.498 262.919 43.362 264.179 43.362C265.511 43.362 266.195 42.246 266.195 40.536V36.216C266.195 35.928 266.285 35.838 266.573 35.838H267.869C268.157 35.838 268.247 35.928 268.247 36.216V40.5V44.622C268.247 44.91 268.157 45 267.869 45H267.221C266.987 45 266.915 44.892 266.771 44.622ZM272.181 37.674C271.893 37.71 271.821 37.602 271.749 37.314L271.533 36.45C271.461 36.162 271.497 36.054 271.767 35.982C271.983 35.928 273.585 35.64 274.917 35.64C278.355 35.64 278.967 37.152 278.967 39.996V44.622C278.967 44.91 278.895 45 278.589 45H277.833C277.617 45 277.527 44.91 277.419 44.622L277.293 43.776C276.789 44.334 275.799 45.198 273.927 45.198C272.307 45.198 270.777 44.208 270.777 42.192C270.777 40.23 272.325 39.294 274.269 39.294C275.025 39.294 276.123 39.474 276.915 39.762C276.915 38.07 276.483 37.404 274.827 37.404C273.801 37.404 272.847 37.548 272.181 37.674ZM274.755 40.752C273.387 40.752 272.811 41.364 272.811 42.192C272.811 42.894 273.333 43.632 274.575 43.632C275.493 43.632 276.375 43.038 276.915 42.354V41.22C276.141 40.95 275.547 40.752 274.755 40.752ZM283.183 36.216L283.435 37.35C283.975 36.63 284.767 35.64 286.297 35.64C288.277 35.64 289.789 36.702 289.789 39.798V44.622C289.789 44.91 289.699 45 289.411 45H288.115C287.827 45 287.737 44.91 287.737 44.622V40.248C287.737 38.34 287.035 37.476 285.775 37.476C284.443 37.476 283.759 38.592 283.759 40.302V44.622C283.759 44.91 283.669 45 283.381 45H282.085C281.797 45 281.707 44.91 281.707 44.622V40.338V36.216C281.707 35.928 281.797 35.838 282.085 35.838H282.733C282.967 35.838 283.039 35.946 283.183 36.216ZM306.34 36.18C306.34 38.25 305.17 39.348 303.604 39.798L306.826 44.514C307.024 44.856 306.808 45 306.502 45H305.17C304.864 45 304.684 44.874 304.504 44.622L301.372 40.014H299.266V44.622C299.266 44.928 299.176 45 298.888 45H297.466C297.178 45 297.088 44.928 297.088 44.622V32.778C297.088 32.49 297.178 32.4 297.466 32.4H301.858C303.91 32.4 306.34 33.264 306.34 36.18ZM299.266 38.196H301.768C303.46 38.196 304.234 37.476 304.234 36.18C304.234 34.812 303.316 34.218 301.768 34.218H299.266V38.196ZM308.231 40.428C308.231 37.8 310.373 35.64 313.001 35.64C315.629 35.64 317.753 37.8 317.753 40.428C317.753 43.056 315.629 45.198 313.001 45.198C310.373 45.198 308.231 43.056 308.231 40.428ZM313.001 43.398C314.495 43.398 315.719 42.102 315.719 40.428C315.719 38.754 314.495 37.476 313.001 37.476C311.489 37.476 310.265 38.754 310.265 40.428C310.265 42.102 311.489 43.398 313.001 43.398ZM320.837 37.674C320.549 37.71 320.477 37.602 320.405 37.314L320.189 36.45C320.117 36.162 320.153 36.054 320.423 35.982C320.639 35.928 322.241 35.64 323.573 35.64C327.011 35.64 327.623 37.152 327.623 39.996V44.622C327.623 44.91 327.551 45 327.245 45H326.489C326.273 45 326.183 44.91 326.075 44.622L325.949 43.776C325.445 44.334 324.455 45.198 322.583 45.198C320.963 45.198 319.433 44.208 319.433 42.192C319.433 40.23 320.981 39.294 322.925 39.294C323.681 39.294 324.779 39.474 325.571 39.762C325.571 38.07 325.139 37.404 323.483 37.404C322.457 37.404 321.503 37.548 320.837 37.674ZM323.411 40.752C322.043 40.752 321.467 41.364 321.467 42.192C321.467 42.894 321.989 43.632 323.231 43.632C324.149 43.632 325.031 43.038 325.571 42.354V41.22C324.797 40.95 324.203 40.752 323.411 40.752ZM339.614 44.91L333.53 32.778C333.44 32.598 333.548 32.4 333.764 32.4H335.438C335.69 32.4 335.78 32.49 335.942 32.778L339.956 41.112V41.13L343.97 32.778C344.114 32.49 344.222 32.4 344.474 32.4H346.13C346.4 32.4 346.454 32.634 346.382 32.778L340.298 44.91C340.154 45.144 340.118 45.27 339.974 45.27H339.92C339.794 45.27 339.758 45.144 339.614 44.91ZM347.674 37.674C347.386 37.71 347.314 37.602 347.242 37.314L347.026 36.45C346.954 36.162 346.99 36.054 347.26 35.982C347.476 35.928 349.078 35.64 350.41 35.64C353.848 35.64 354.46 37.152 354.46 39.996V44.622C354.46 44.91 354.388 45 354.082 45H353.326C353.11 45 353.02 44.91 352.912 44.622L352.786 43.776C352.282 44.334 351.292 45.198 349.42 45.198C347.8 45.198 346.27 44.208 346.27 42.192C346.27 40.23 347.818 39.294 349.762 39.294C350.518 39.294 351.616 39.474 352.408 39.762C352.408 38.07 351.976 37.404 350.32 37.404C349.294 37.404 348.34 37.548 347.674 37.674ZM350.248 40.752C348.88 40.752 348.304 41.364 348.304 42.192C348.304 42.894 348.826 43.632 350.068 43.632C350.986 43.632 351.868 43.038 352.408 42.354V41.22C351.634 40.95 351.04 40.752 350.248 40.752ZM352.516 33.228L351.112 34.416C350.95 34.56 350.752 34.65 350.518 34.65H349.384C349.132 34.65 349.078 34.524 349.366 34.2L351.598 31.788C351.778 31.554 351.976 31.644 352.138 31.896L352.642 32.706C352.75 32.922 352.75 33.03 352.516 33.228ZM360.211 43.596C361.561 43.596 362.191 43.074 362.191 42.372C362.191 41.778 361.399 41.49 360.031 41.31C358.159 41.058 356.521 40.482 356.521 38.556C356.521 36.792 357.979 35.64 360.157 35.64C361.093 35.64 362.317 35.874 363.631 36.648C363.919 36.828 363.847 36.954 363.739 37.206L363.343 37.872C363.217 38.124 363.109 38.232 362.839 38.052C362.065 37.566 361.381 37.242 360.283 37.242C358.987 37.242 358.465 37.71 358.465 38.448C358.465 39.15 359.239 39.33 360.625 39.528C362.497 39.762 364.135 40.356 364.135 42.264C364.135 44.01 362.659 45.198 360.337 45.198C359.383 45.198 357.925 44.928 356.611 44.046C356.359 43.866 356.395 43.758 356.521 43.506L356.917 42.822C357.043 42.57 357.133 42.444 357.421 42.66C358.087 43.128 359.077 43.596 360.211 43.596ZM372.788 48.294V43.524C372.536 44.01 371.528 45.198 369.782 45.198C367.316 45.198 365.624 43.038 365.624 40.41C365.624 37.854 367.316 35.64 369.782 35.64C371.528 35.64 372.5 36.63 373.13 37.386L373.382 36.216C373.526 35.946 373.598 35.838 373.832 35.838H374.462C374.75 35.838 374.84 35.928 374.84 36.216V48.294C374.84 48.582 374.75 48.672 374.462 48.672H373.166C372.86 48.672 372.788 48.582 372.788 48.294ZM370.232 37.44C368.738 37.44 367.658 38.736 367.658 40.41C367.658 42.03 368.738 43.362 370.232 43.362C371.726 43.362 372.788 41.994 372.788 40.41C372.788 38.826 371.726 37.44 370.232 37.44ZM384.105 44.622L383.853 43.488C383.313 44.226 382.521 45.198 380.991 45.198C379.011 45.198 377.499 44.136 377.499 41.04V36.216C377.499 35.928 377.589 35.838 377.877 35.838H379.173C379.461 35.838 379.551 35.928 379.551 36.216V40.608C379.551 42.498 380.253 43.362 381.513 43.362C382.845 43.362 383.529 42.246 383.529 40.536V36.216C383.529 35.928 383.619 35.838 383.907 35.838H385.203C385.491 35.838 385.581 35.928 385.581 36.216V40.5V44.622C385.581 44.91 385.491 45 385.203 45H384.555C384.321 45 384.249 44.892 384.105 44.622ZM395.815 42.786L396.337 43.434C396.517 43.65 396.553 43.758 396.391 43.938C395.563 44.748 394.069 45.198 392.755 45.198C390.037 45.198 387.913 43.056 387.913 40.428C387.913 37.8 390.037 35.64 392.665 35.64C395.599 35.64 397.129 37.998 397.129 40.698C397.129 40.986 397.075 41.094 396.769 41.094H390.037C390.235 42.39 391.405 43.434 392.809 43.434C393.439 43.434 394.339 43.29 395.275 42.75C395.545 42.624 395.635 42.552 395.815 42.786ZM390.073 39.744H395.041C394.915 38.574 394.123 37.332 392.611 37.332C391.081 37.332 390.199 38.574 390.073 39.744ZM405.693 45H398.421C398.295 45 398.259 44.964 398.259 44.838V44.694C398.259 44.568 398.295 44.496 398.385 44.352L403.011 37.638H399.051C398.763 37.638 398.673 37.548 398.673 37.26V36.216C398.673 35.928 398.763 35.838 399.051 35.838H405.981C406.089 35.838 406.125 35.874 406.125 36V36.162C406.125 36.27 406.071 36.36 405.999 36.486L401.445 43.2H405.693C405.981 43.2 406.071 43.29 406.071 43.578V44.622C406.071 44.91 405.981 45 405.693 45Z" fill="#F3F5F2"/>
</svg>
