<svg width="1922" height="390" viewBox="0 0 1922 390" fill="none" xmlns="http://www.w3.org/2000/svg">
<g clip-path="url(#clip0_668_3921)">
<mask id="mask0_668_3921" style="mask-type:luminance" maskUnits="userSpaceOnUse" x="0" y="0" width="1922" height="390">
<path d="M1922 0H0V390H1922V0Z" fill="white"/>
</mask>
<g mask="url(#mask0_668_3921)">
<path d="M90.654 100.116L330.062 629.149H-89.4769V82.4851H63.3224C75.1048 82.4851 85.7963 89.3821 90.654 100.116Z" fill="#257057"/>
<path d="M55.8055 338.69C55.7255 338.74 55.6355 338.79 55.5355 338.81L26.6755 345.42C28.9855 350.5 32.0555 355.37 36.1155 359.63L67.6355 351.55C63.8955 347.44 59.8855 343.08 55.8055 338.69Z" fill="#F3F5F2"/>
<path d="M73.5155 324.61L64.9355 346.12C69.0455 350.61 72.9155 354.88 76.3455 358.74C79.2555 355.67 89.1055 342.95 73.5155 324.61Z" fill="#F3F5F2"/>
<path d="M20.3155 318.99L38.2655 319.97C30.9955 312.28 24.5855 305.56 20.4555 301.24C20.1955 303.75 19.6555 310.52 20.3155 318.99Z" fill="#F3F5F2"/>
<path d="M39.8856 321.69C39.8056 321.71 39.7356 321.73 39.6556 321.72L20.4656 320.67C21.1456 327.84 22.7056 336.05 25.9956 343.86L54.5456 337.32C49.5956 332.01 44.5856 326.67 39.8856 321.69Z" fill="#F3F5F2"/>
<path d="M68.8653 352.91C68.7853 352.97 68.6953 353.01 68.5953 353.04L37.4753 361.01C38.9853 362.46 40.6153 363.82 42.3853 365.09C42.3853 365.09 55.3153 375.11 75.0853 359.85C73.1453 357.66 71.0653 355.33 68.8653 352.91Z" fill="#F3F5F2"/>
<path d="M48.3154 328.21C53.4454 333.68 58.7054 339.33 63.6754 344.75L72.2754 323.2C70.6354 321.4 68.7654 319.54 66.6054 317.64C66.6054 317.64 61.0954 312.05 51.6954 307.19L48.3154 328.21Z" fill="#F3F5F2"/>
<path d="M46.8754 326.67L50.1354 306.4C42.6454 302.77 32.9454 299.76 21.7354 300.15C27.2254 305.91 36.7054 315.85 46.8754 326.67Z" fill="#F3F5F2"/>
<path d="M70.8354 299.3C70.7354 299.29 70.6354 299.28 70.5454 299.23L43.5454 287.09C42.3154 292.53 41.8254 298.27 42.5054 304.12L72.5154 316.7C72.0054 311.16 71.4354 305.26 70.8354 299.3Z" fill="#86C127"/>
<path d="M93.4555 298.76L73.6355 310.73C74.2055 316.79 74.7155 322.53 75.1155 327.68C79.2855 326.99 94.8155 322.79 93.4555 298.76Z" fill="#86C127"/>
<path d="M54.4155 262.18L68.1355 273.79C66.9855 263.27 65.9255 254.05 65.2355 248.11C63.5155 249.95 58.9955 255.02 54.4155 262.18Z" fill="#86C127"/>
<path d="M68.3953 276.13C68.3253 276.1 68.2552 276.07 68.1952 276.02L53.5252 263.61C49.7452 269.74 46.0353 277.23 43.9453 285.44L70.6552 297.45C69.9052 290.22 69.1353 282.95 68.3953 276.13Z" fill="#86C127"/>
<path d="M72.6654 318.52C72.5654 318.52 72.4654 318.5 72.3754 318.46L42.7554 306.04C43.0854 308.1 43.5654 310.17 44.2054 312.25C44.2054 312.25 48.4754 328.04 73.4454 327.81C73.2154 324.89 72.9554 321.78 72.6654 318.52Z" fill="#86C127"/>
<path d="M71.1755 286.42C71.9655 293.88 72.7455 301.56 73.4555 308.88L93.3155 296.88C93.0955 294.46 92.7155 291.85 92.1455 289.03C92.1455 289.03 91.1255 281.25 86.5555 271.7L71.1755 286.42Z" fill="#86C127"/>
<path d="M70.9555 284.32L85.7855 270.12C82.0055 262.7 76.0855 254.45 66.9055 248C67.8255 255.91 69.3855 269.56 70.9555 284.32Z" fill="#86C127"/>
<path d="M26.6755 287.1C30.304 287.1 33.2455 284.158 33.2455 280.53C33.2455 276.901 30.304 273.96 26.6755 273.96C23.047 273.96 20.1055 276.901 20.1055 280.53C20.1055 284.158 23.047 287.1 26.6755 287.1Z" fill="#F3F5F2"/>
<path d="M95.0554 334.82C97.7654 340.38 100.955 346.6 106.695 349.57C111.535 352.07 117.575 350.72 120.895 346.33C122.595 344.08 123.035 341.32 121.755 338.77C121.575 338.42 121.035 338.36 120.775 338.64C112.815 347.35 115.735 360.68 121.225 369.86C127.785 380.84 138.375 389.92 140.665 403.03C141.775 409.36 140.795 416.26 136.115 420.98C135.545 421.55 136.435 422.44 136.995 421.86C145.195 413.61 142.805 400.27 137.575 391.11C131.185 379.92 120.465 370.94 117.755 357.88C116.435 351.51 117.125 344.48 121.665 339.51C121.335 339.47 121.015 339.43 120.685 339.38C123.785 345.53 114.985 350.73 109.745 349.41C102.775 347.66 99.0254 340.06 96.1554 334.17C95.7854 333.47 94.7054 334.1 95.0554 334.82Z" fill="#86C127"/>
</g>
</g>
<defs>
<clipPath id="clip0_668_3921">
<rect width="1922" height="390" fill="white"/>
</clipPath>
</defs>
</svg>
