<svg width="1922" height="390" viewBox="0 0 1922 390" fill="none" xmlns="http://www.w3.org/2000/svg">
<path d="M1753.37 138.614C1753.31 138.574 1753.26 138.525 1753.21 138.465L1741.06 121.478C1738.37 124.359 1736.04 127.677 1734.37 131.482L1748.2 149.82C1749.87 146.263 1751.62 142.469 1753.37 138.614Z" fill="#009D71"/>
<path d="M1767.36 146.333L1751.01 146.581C1749.2 150.475 1747.47 154.161 1745.88 157.439C1748.67 158.492 1759.64 161.462 1767.36 146.333Z" fill="#009D71"/>
<path d="M1756.56 110.163L1760.79 122.114C1763.84 115.289 1766.47 109.299 1768.16 105.435C1766.46 105.941 1761.91 107.431 1756.56 110.163Z" fill="#009D71"/>
<path d="M1760.13 123.634C1760.1 123.594 1760.06 123.544 1760.04 123.495L1755.5 110.709C1751.02 113.094 1746.09 116.342 1741.89 120.604L1753.91 137.412C1756.03 132.763 1758.15 128.054 1760.13 123.634Z" fill="#009D71"/>
<path d="M1747.65 150.982C1747.59 150.942 1747.54 150.902 1747.49 150.843L1733.84 132.743C1733.3 134.114 1732.85 135.545 1732.52 137.045C1732.52 137.045 1729.5 148.181 1744.82 156.922C1745.72 155.065 1746.66 153.078 1747.65 150.982Z" fill="#009D71"/>
<path d="M1758.16 130.895C1755.99 135.723 1753.73 140.68 1751.56 145.389L1767.94 145.141C1768.67 143.591 1769.38 141.862 1770.02 139.935C1770.02 139.935 1772.17 134.829 1772.79 127.389L1758.16 130.895Z" fill="#009D71"/>
<path d="M1758.78 129.534L1772.88 126.157C1773.21 120.296 1772.54 113.163 1769.23 105.971C1766.97 111.107 1763.07 119.978 1758.78 129.534Z" fill="#009D71"/>
<path d="M1732.46 134.313C1732.41 134.343 1732.36 134.352 1732.3 134.362L1715.76 136.131C1716.71 139.121 1718.1 142.031 1720.08 144.674L1738.19 142.27C1736.39 139.727 1734.44 137.035 1732.46 134.313Z" fill="#65D83D"/>
<path d="M1743.27 127.647L1737.05 139.061C1739.05 141.833 1740.92 144.475 1742.57 146.859C1744.41 145.339 1750.75 138.912 1743.27 127.647Z" fill="#65D83D"/>
<path d="M1713.97 120.981L1723.91 122.72C1720.37 117.951 1717.24 113.779 1715.23 111.097C1714.93 112.478 1714.17 116.213 1713.97 120.981Z" fill="#65D83D"/>
<path d="M1724.71 123.783C1724.67 123.783 1724.62 123.793 1724.58 123.783L1713.94 121.925C1713.84 125.968 1714.17 130.647 1715.48 135.217L1731.84 133.468C1729.44 130.18 1727 126.872 1724.71 123.783Z" fill="#65D83D"/>
<path d="M1738.8 143.104C1738.75 143.134 1738.7 143.154 1738.64 143.154L1720.75 145.528C1721.5 146.432 1722.31 147.306 1723.22 148.131C1723.22 148.131 1729.76 154.578 1741.81 147.386C1740.87 146.045 1739.86 144.604 1738.8 143.104Z" fill="#65D83D"/>
<path d="M1728.98 127.975C1731.47 131.362 1734.03 134.859 1736.44 138.217L1742.68 126.783C1741.88 125.67 1740.96 124.508 1739.88 123.306C1739.88 123.306 1737.18 119.829 1732.26 116.491L1728.98 127.975Z" fill="#65D83D"/>
<path d="M1728.28 127.021L1731.45 115.945C1727.51 113.422 1722.3 111.097 1716.03 110.571C1718.7 114.147 1723.33 120.316 1728.28 127.021Z" fill="#65D83D"/>
<path d="M1741.98 152.615C1756.87 166.473 1776.1 175.334 1796.25 177.927C1801.32 178.582 1806.45 178.831 1811.56 178.652C1816.3 178.493 1821.2 178.106 1825.67 176.407C1829.47 174.957 1833.1 172.443 1834.69 168.579C1836.02 165.36 1836.07 161.417 1834.36 158.327C1832.66 155.257 1829.11 153.589 1825.68 154.473C1821.95 155.436 1819.22 158.883 1818.05 162.4C1814.92 171.718 1823.59 179.427 1830.15 184.493C1845.71 196.513 1861.32 208.543 1874.89 222.838C1888.08 236.716 1899.36 252.879 1904.57 271.485C1905.22 273.8 1905.77 276.134 1906.22 278.489C1906.37 279.273 1907.58 278.936 1907.43 278.161C1903.97 260.488 1895.05 244.604 1883.65 230.825C1871.82 216.52 1857.6 204.381 1843.06 192.927C1839.53 190.146 1835.98 187.404 1832.41 184.682C1828.69 181.831 1824.83 178.91 1822.01 175.096C1819.37 171.509 1817.78 167.119 1819.25 162.738C1820.46 159.122 1823.74 155.267 1827.91 155.486C1831.86 155.695 1834.17 159.281 1834.4 162.927C1834.66 166.98 1832.82 170.605 1829.56 172.98C1825.8 175.712 1821.04 176.685 1816.5 177.122C1811.71 177.579 1806.88 177.589 1802.09 177.271C1782.66 175.97 1763.6 168.648 1748.36 156.499C1746.47 154.989 1744.64 153.4 1742.87 151.751C1742.28 151.194 1741.39 152.069 1741.98 152.615Z" fill="#9DC944"/>
<path d="M1837.52 40.2144C1837.48 40.2413 1837.44 40.2682 1837.39 40.2816L1823.31 44.323C1824.59 46.7707 1826.24 49.0906 1828.36 51.081L1843.72 46.2462C1841.76 44.3162 1839.66 42.272 1837.52 40.2144Z" fill="#009D71"/>
<path d="M1845.9 32.7908L1842.24 43.6372C1844.39 45.742 1846.42 47.7459 1848.21 49.5615C1849.57 47.9678 1854.09 41.4249 1845.9 32.7908Z" fill="#009D71"/>
<path d="M1819.45 31.4459H1828.35C1824.55 27.8416 1821.2 24.7013 1819.05 22.6772C1818.98 23.928 1818.9 27.2835 1819.45 31.4459Z" fill="#009D71"/>
<path d="M1829.2 32.2527C1829.16 32.2661 1829.12 32.2729 1829.08 32.2729H1819.57C1820.1 35.7897 1821.09 39.8042 1822.93 43.5766L1836.86 39.5756C1834.27 37.0875 1831.65 34.5861 1829.2 32.2527Z" fill="#009D71"/>
<path d="M1844.36 46.885C1844.32 46.9119 1844.28 46.9388 1844.23 46.959L1829.07 51.7333C1829.85 52.4058 1830.7 53.0379 1831.61 53.6162C1831.61 53.6162 1838.27 58.2156 1847.63 50.1531C1846.6 49.1175 1845.51 48.0214 1844.36 46.885Z" fill="#009D71"/>
<path d="M1833.54 35.245C1836.22 37.807 1838.97 40.4565 1841.58 42.9983L1845.24 32.1249C1844.39 31.2776 1843.41 30.4169 1842.29 29.536C1842.29 29.536 1839.41 26.927 1834.64 24.7751L1833.54 35.245Z" fill="#009D71"/>
<path d="M1832.79 34.5256L1833.85 24.4323C1830.05 22.8386 1825.18 21.6147 1819.65 22.1124C1822.52 24.8021 1827.47 29.4554 1832.79 34.5256Z" fill="#009D71"/>
<path d="M1875.32 194.224C1875.26 194.192 1875.19 194.138 1875.15 194.079L1861.51 177.27C1858.91 180.412 1856.71 183.992 1855.23 188.036L1870.68 206.121C1872.18 202.344 1873.75 198.311 1875.32 194.224Z" fill="#65D83D"/>
<path d="M1890.27 201.317L1873.39 202.603C1871.77 206.742 1870.21 210.656 1868.78 214.145C1871.74 215.061 1883.25 217.44 1890.27 201.317Z" fill="#65D83D"/>
<path d="M1876.8 164.601L1881.95 176.691C1884.65 169.453 1887 163.085 1888.49 158.992C1886.76 159.628 1882.15 161.443 1876.8 164.601Z" fill="#65D83D"/>
<path d="M1881.34 178.313C1881.31 178.272 1881.26 178.227 1881.24 178.174L1875.75 165.252C1871.26 168.006 1866.39 171.665 1862.32 176.336L1875.81 192.956C1877.7 187.994 1879.58 182.997 1881.34 178.313Z" fill="#65D83D"/>
<path d="M1870.2 207.358C1870.14 207.326 1870.08 207.285 1870.02 207.222L1854.77 189.375C1854.31 190.826 1853.94 192.336 1853.68 193.9C1853.68 193.9 1851.27 205.6 1867.65 213.67C1868.46 211.696 1869.31 209.585 1870.2 207.358Z" fill="#65D83D"/>
<path d="M1879.78 185.942C1877.84 191.067 1875.83 196.325 1873.88 201.335L1890.79 200.045C1891.45 198.393 1892.06 196.562 1892.6 194.539C1892.6 194.539 1894.49 189.129 1894.66 181.394L1879.78 185.942Z" fill="#65D83D"/>
<path d="M1880.32 184.497L1894.66 180.119C1894.63 174.039 1893.49 166.707 1889.61 159.48C1887.62 164.93 1884.15 174.343 1880.32 184.497Z" fill="#65D83D"/>
<path d="M1896.57 221.14C1900.2 221.14 1903.14 218.199 1903.14 214.57C1903.14 210.941 1900.2 208 1896.57 208C1892.94 208 1890 210.941 1890 214.57C1890 218.199 1892.94 221.14 1896.57 221.14Z" fill="#9DC944"/>
</svg>
